<svg width="258" height="254" viewBox="0 0 258 254" fill="none" xmlns="http://www.w3.org/2000/svg">
  <path
    d="M151.634 20.552C152.591 18.7599 153.434 17.1812 153.245 13.0421C153.245 12.6429 153.179 12.2438 153.112 11.8446C153.078 11.6116 153.029 11.4119 152.979 11.2123C152.929 11.0127 152.879 10.8132 152.846 10.5804C151.914 7.18736 150.051 4.1934 146.658 1.93141C148.254 1.39919 149.985 1 151.848 1C154.244 1 156.838 1.53234 159.699 3.26216C162.694 5.39113 166.486 8.45154 166.287 13.0421C165.517 14.6016 163.74 15.9209 161.687 17.4449C156.819 21.0574 150.402 25.8204 152.181 37.6584C151.848 37.1926 151.582 36.6604 151.382 36.1947C149.053 32.3359 148.521 27.5457 150.45 23.0881C150.817 22.0854 151.229 21.3119 151.621 20.5763M151.634 20.552L151.621 20.5763M151.634 20.552C151.629 20.5601 151.625 20.5682 151.621 20.5763M199.624 27.413C201.653 31.4691 203.172 35.7759 203.949 40.2535L203.95 40.2606C204.296 42.7973 204.614 45.3484 204.614 47.9042C204.614 49.3646 204.482 50.8913 204.348 52.4181L204.347 52.4283C204.226 53.7661 203.993 55.1038 203.751 56.4922M199.624 27.413L199.601 27.3719M199.624 27.413C199.617 27.3993 199.609 27.3856 199.601 27.3719M203.745 56.5257L203.682 56.8859C203.54 57.5113 203.389 58.1322 203.228 58.749M203.745 56.5257L203.751 56.4922M203.745 56.5257C203.747 56.5146 203.749 56.5034 203.751 56.4922M183.589 85.8922C182.259 86.6905 180.992 87.4234 179.595 88.0887C178.264 88.754 176.867 89.4192 175.403 89.9515C174.636 90.2438 173.848 90.5159 173.051 90.7682C159.852 75.1841 129.386 74.4202 111.014 84.6882C94.3822 93.2783 86.627 107.331 82.3737 117.514M183.589 85.8922C183.778 85.7632 183.966 85.6342 184.154 85.5049M183.589 85.8922L184.154 85.5049M82.3737 117.514L53.0351 181.696L48.8639 113.181M82.3737 117.514C71.9958 113.712 60.6756 112.099 48.8639 113.181M155.832 41.9129C155.721 41.7067 155.599 41.4786 155.508 41.251C155.409 40.985 155.325 40.7189 155.242 40.4528M155.832 41.9129L155.849 41.9446M155.832 41.9129C155.838 41.9235 155.843 41.9341 155.849 41.9446M155.242 40.4528L155.228 40.4083M155.242 40.4528C155.237 40.438 155.232 40.4231 155.228 40.4083M219.453 63.14C219.127 64.1165 218.769 65.1255 218.378 66.1216M219.453 63.14L219.471 63.074M219.453 63.14C219.459 63.118 219.465 63.096 219.471 63.074M187.98 93.2783C189.443 92.8791 190.909 92.4125 192.306 91.8803C193.703 91.2818 195.099 90.6832 196.496 90.0183C197.827 89.3529 199.158 88.5546 200.422 87.7563C201.753 86.9578 202.95 86.0928 204.148 85.1615C204.412 84.931 204.662 84.7141 204.909 84.5001C205.16 84.2826 205.411 84.0651 205.678 83.8309C206.344 83.2987 206.943 82.7665 207.609 82.1676C208.673 81.1031 209.737 80.0387 210.735 78.8412C211.668 77.7102 212.599 76.5126 213.463 75.2486C214.329 74.0511 215.127 72.7203 215.86 71.4563C216.591 70.1256 217.257 68.7285 217.855 67.398C218.036 66.9773 218.21 66.5507 218.378 66.1216M187.98 93.2783C186.515 93.6775 184.985 94.0101 183.521 94.2762C181.291 94.6642 179.009 94.8551 176.747 94.9257C179.212 100.577 186.357 112.146 195.227 115.102C196.668 119.538 197.411 121.879 197.603 122.494C197.146 122.329 196.695 122.644 196.247 122.494C174.346 115.149 163.9 126.707 159.53 140.995M187.98 93.2783L184.154 85.5049M48.8639 113.181C45.2181 113.515 41.5256 114.105 37.7994 114.967C34.3393 120.688 30.347 125.878 29.615 124.214C28.9496 122.618 29.2158 117.229 29.615 112.638C26.6872 117.295 23.7594 121.354 23.1606 120.023C22.6281 118.825 22.6948 115.432 22.8943 111.84C20.9277 111.342 19.1034 110.635 17.438 109.445C13.9455 107.122 10.2517 102.553 10.2517 98.1339C10.1846 98.1339 10.1183 98.0678 10.052 98.0678C-2.67366 91.7068 -2.12564 73.0388 12.6094 69.3192C16.3687 68.3802 20.2274 67.6119 24.0252 66.7983C25.4891 66.3326 26.9529 65.8003 28.3503 65.2015C29.8142 64.6027 31.2116 63.9374 32.5423 63.2056C33.9396 62.4072 35.2039 61.609 36.5347 60.6775C37.799 59.8126 39.0632 58.8146 40.2609 57.7502C41.4586 56.7522 42.5898 55.6211 43.6545 54.4902C43.9819 54.1629 44.3028 53.8297 44.6195 53.492C54.2639 43.2103 66.4873 35.8493 80.5174 33.1342L80.5231 33.1332C85.5162 32.1347 90.61 31.4714 95.6886 31.1384C98.5498 30.9386 101.478 30.8057 104.405 30.8057C112.636 30.8057 120.698 31.6554 128.759 33.2674L132.951 34.2654C140.917 36.1029 148.361 39.2371 155.973 42.1825C155.936 42.1079 155.894 42.0282 155.849 41.9446M107.902 190.26C107.849 189.432 107.856 188.574 107.933 187.684C108.398 182.276 108.199 178.77 107.267 174.378C105.803 180.499 102.942 186.221 99.0161 191.144C92.959 191.59 83.8475 188.234 81.9819 181.696C81.7822 181.231 81.6492 180.765 81.5827 180.299C81.4011 179.032 81.4986 177.666 81.8487 176.441C82.132 175.448 82.5081 174.493 83.113 173.646C84.2441 170.452 84.2441 167.858 82.1814 166.328C81.032 165.561 79.4761 165.057 78.1225 164.864C75.6659 164.161 72.3693 164.517 70.0046 165.53C52.8092 172.892 58.4239 198.823 71.7346 207.444C67.7422 208.176 63.6833 209.041 62.5521 209.906L62.4191 210.038C65.2804 211.768 68.2747 213.232 71.4021 214.496C80.0733 217.341 88.7846 219 97.5165 218.794M107.902 190.26C108.683 202.388 122.552 208.025 124.678 211.409C115.617 216.371 106.556 218.581 97.5165 218.794M107.902 190.26H157.545M157.545 190.26C159.057 181.89 158.785 173.13 156.973 164.931C156.84 162.861 156.795 160.607 156.863 158.247M157.545 190.26C156.871 193.986 155.845 197.635 154.443 201.124C154.331 201.402 154.232 201.682 154.134 201.956L154.131 201.965C150.364 212.523 141.795 223.233 132.951 229.866C131.726 230.628 130.646 231.563 129.424 232.327L129.623 232.726C140.144 232.726 152.469 227.886 162.029 223.878C155.828 232.338 148.352 238.31 139.891 243.345M97.5165 218.794L139.891 243.345M139.891 243.345C133.914 246.901 127.445 249.99 120.586 253.157C128.18 253.157 140.224 253.418 148.079 253.157C177.133 252.188 192.77 227.736 206.278 203.453C203.55 218.822 197.428 233.458 188.378 246.232C194.833 241.973 200.755 237.05 206.144 231.462C221.049 215.894 230.831 196.134 234.158 174.911C236.42 185.422 237.085 196.267 236.087 206.979C276.646 146.324 250.581 81.9196 222.155 55.3389L220.726 54.2914C221.133 55.7215 220.851 57.2764 220.586 58.7365L220.584 58.749C220.256 60.1906 219.863 61.6323 219.471 63.074M156.863 158.247H114.963L140.683 94.2762L159.53 140.995M156.863 158.247C157.022 152.737 157.8 146.652 159.53 140.995M184.154 85.5049C185.228 84.7681 186.295 84.0241 187.313 83.2319C188.512 82.3005 189.642 81.3025 190.708 80.2381C191.838 79.2401 192.836 78.109 193.834 76.9781C195.773 74.652 197.474 72.1654 198.958 69.5267C199.69 68.1961 200.356 66.8655 200.954 65.4683C201.895 63.2755 202.63 61.0409 203.228 58.749M203.228 58.749L218.378 66.1216M155.228 40.4083C155.149 40.1569 155.07 39.9056 154.976 39.6543C154.609 38.189 154.377 36.7082 154.377 35.1968C154.377 33.6249 154.643 31.7977 155.176 30.207C155.824 27.6038 157.51 24.9176 159.567 23.1549C160.885 21.8364 162.465 20.8599 164.052 19.9061L164.067 19.8975C164.941 19.3712 165.814 18.8457 166.62 18.2316C167.986 17.2581 169.111 15.929 170.08 14.5723C170.551 13.8663 171.019 13.1802 171.377 12.4119C171.714 11.6867 172.073 10.8584 172.276 10.0483C172.932 8.29831 172.698 6.57194 173.008 4.79231C175.695 5.65926 178.215 6.85318 180.659 8.25231C184.486 10.6943 188.416 13.2128 191.639 16.4355C192.704 17.5665 193.702 18.6976 194.699 19.8286C195.631 21.0262 196.496 22.2237 197.361 23.4878C198.152 24.7389 198.876 26.0551 199.601 27.3719"
    stroke="black" stroke-width="0.6" stroke-linecap="round" stroke-linejoin="round" stroke-dasharray="2 4" />
</svg>