<svg width="1024" height="1024" viewBox="0 0 512 512" fill="none" xmlns="http://www.w3.org/2000/svg">
  <style>
    path {
      stroke-dasharray: 1000;
      stroke-dashoffset: 100;
      animation: dash 60s linear alternate infinite;
    }
    @keyframes dash {
      from {
        stroke-dashoffset: 3922;
      }
      to {
        stroke-dashoffset: 0;
      }
    }
  </style>
  <path d="M298.084 58.3491C299.865 55.0173 301.431 52.0824 301.081 44.3874C301.081 43.6453 300.958 42.9032 300.833 42.1611C300.771 41.7279 300.678 41.3568 300.586 40.9856C300.493 40.6147 300.4 40.2437 300.34 39.8109C298.607 33.5029 295.142 27.9368 288.833 23.7316C291.801 22.7421 295.019 22 298.484 22C302.937 22 307.762 22.9897 313.082 26.2056C318.65 30.1635 325.701 35.8531 325.33 44.3874C323.898 47.2866 320.595 49.7394 316.777 52.5727C307.726 59.2887 295.795 68.1435 299.102 90.1514C298.484 89.2856 297.988 88.2961 297.617 87.4303C293.286 80.2565 292.297 71.351 295.884 63.0639C296.565 61.1997 297.332 59.7618 298.06 58.3941M298.084 58.3491L298.06 58.3941M298.084 58.3491C298.076 58.3641 298.068 58.3791 298.06 58.3941M387.317 71.1043C391.089 78.6451 393.913 86.6518 395.358 94.976L395.359 94.9892C396.003 99.7052 396.595 104.448 396.595 109.199C396.595 111.914 396.349 114.753 396.101 117.591L396.099 117.61C395.874 120.097 395.44 122.584 394.99 125.165M387.317 71.1043L387.275 71.0279M387.317 71.1043C387.303 71.0789 387.289 71.0534 387.275 71.0279M394.979 125.228L394.862 125.897C394.598 127.06 394.317 128.214 394.018 129.361M394.979 125.228L394.99 125.165M394.979 125.228C394.983 125.207 394.986 125.186 394.99 125.165M357.501 179.823C355.029 181.307 352.673 182.669 350.075 183.906C347.601 185.143 345.003 186.38 342.281 187.369C340.854 187.913 339.39 188.419 337.908 188.888C313.366 159.915 256.719 158.495 222.557 177.584C191.633 193.554 177.213 219.68 169.304 238.61M357.501 179.823C357.852 179.583 358.203 179.343 358.553 179.103M357.501 179.823L358.553 179.103M169.304 238.61L114.753 357.931L106.997 230.555M169.304 238.61C150.008 231.542 128.959 228.545 106.997 230.555M305.891 98.0611C305.684 97.6777 305.457 97.2535 305.289 96.8306C305.104 96.3359 304.948 95.8412 304.793 95.3465M305.891 98.0611L305.922 98.1199M305.891 98.0611C305.901 98.0808 305.912 98.1004 305.922 98.1199M304.793 95.3465L304.767 95.2638M304.793 95.3465C304.785 95.319 304.776 95.2914 304.767 95.2638M424.185 137.524C423.58 139.34 422.914 141.215 422.188 143.067M424.185 137.524L424.219 137.402M424.185 137.524C424.197 137.483 424.208 137.442 424.219 137.402M365.665 193.554C368.386 192.812 371.112 191.945 373.71 190.955C376.307 189.843 378.903 188.73 381.501 187.494C383.976 186.257 386.45 184.773 388.8 183.288C391.275 181.804 393.502 180.196 395.728 178.464C396.218 178.036 396.684 177.633 397.144 177.235C397.611 176.83 398.076 176.426 398.574 175.991C399.811 175.001 400.926 174.012 402.163 172.898C404.142 170.919 406.121 168.941 407.977 166.714C409.71 164.612 411.441 162.385 413.049 160.035C414.659 157.809 416.143 155.335 417.505 152.985C418.865 150.511 420.103 147.914 421.215 145.44C421.55 144.658 421.875 143.865 422.188 143.067M365.665 193.554C362.943 194.296 360.097 194.915 357.375 195.409C353.229 196.131 348.985 196.486 344.78 196.617C349.362 207.123 362.647 228.632 379.142 234.127C381.821 242.373 383.202 246.725 383.559 247.87C382.71 247.562 381.87 248.148 381.037 247.87C340.314 234.215 320.892 255.701 312.766 282.263M365.665 193.554L358.553 179.103M106.997 230.555C100.218 231.176 93.3522 232.273 86.4239 233.875C79.9903 244.512 72.567 254.16 71.206 251.067C69.9688 248.099 70.4637 238.081 71.206 229.545C65.7622 238.203 60.3183 245.749 59.2049 243.275C58.2148 241.049 58.3387 234.74 58.7097 228.062C55.0531 227.136 51.6611 225.821 48.5645 223.609C42.0706 219.291 35.2023 210.797 35.2023 202.581C35.0776 202.581 34.9543 202.458 34.8311 202.458C11.1693 190.633 12.1883 155.927 39.5862 149.012C46.5762 147.266 53.751 145.838 60.8125 144.325C63.5344 143.46 66.2562 142.47 68.8544 141.357C71.5764 140.244 74.1746 139.007 76.6489 137.646C79.2472 136.162 81.5979 134.678 84.0724 132.946C86.4232 131.338 88.7737 129.483 91.0008 127.504C93.2278 125.649 95.3311 123.546 97.3107 121.443C97.9195 120.835 98.5161 120.216 99.105 119.588C117.038 100.473 139.765 86.7883 165.853 81.7407L165.863 81.7388C175.147 79.8824 184.619 78.6493 194.062 78.0301C199.382 77.6588 204.826 77.4117 210.269 77.4117C225.573 77.4117 240.564 78.9913 255.551 81.9883L263.346 83.8436C278.159 87.2598 291.999 93.0864 306.154 98.5622C306.085 98.4235 306.005 98.2753 305.922 98.1199M216.771 373.852C216.672 372.313 216.686 370.718 216.828 369.064C217.693 359.01 217.322 352.491 215.591 344.327C212.869 355.707 207.548 366.344 200.249 375.496C188.986 376.326 172.045 370.086 168.576 357.931C168.204 357.067 167.957 356.201 167.833 355.334C167.496 352.979 167.677 350.44 168.328 348.161C168.855 346.316 169.554 344.541 170.679 342.966C172.782 337.028 172.782 332.205 168.947 329.362C166.809 327.934 163.917 326.998 161.4 326.639C156.832 325.333 150.702 325.994 146.305 327.877C114.333 341.563 124.773 389.772 149.522 405.798C142.099 407.16 134.552 408.768 132.449 410.376L132.201 410.622C137.521 413.838 143.089 416.56 148.904 418.91C165.027 424.198 181.225 427.282 197.46 426.9M216.771 373.852C218.224 396.4 244.01 406.88 247.964 413.17C231.116 422.395 214.268 426.505 197.46 426.9M216.771 373.852H309.075M309.075 373.852C311.887 358.291 311.382 342.006 308.011 326.764C307.765 322.916 307.681 318.725 307.807 314.337M309.075 373.852C307.824 380.78 305.914 387.564 303.308 394.049C303.1 394.567 302.915 395.087 302.733 395.596L302.727 395.614C295.723 415.242 279.79 435.153 263.346 447.483C261.069 448.9 259.06 450.64 256.789 452.059L257.159 452.801C276.721 452.801 299.638 443.802 317.413 436.351C305.884 452.08 291.983 463.182 276.25 472.542M197.46 426.9L276.25 472.542M276.25 472.542C265.136 479.154 253.108 484.896 240.355 490.784C254.475 490.784 276.87 491.27 291.476 490.784C345.497 488.983 374.572 443.524 399.688 398.379C394.616 426.951 383.234 454.161 366.407 477.909C378.407 469.993 389.419 460.841 399.44 450.451C427.154 421.509 445.341 384.772 451.528 345.318C455.734 364.859 456.971 385.02 455.115 404.934C530.529 292.171 482.064 172.437 429.21 123.021L426.552 121.074C427.311 123.733 426.786 126.623 426.293 129.338L426.289 129.361C425.68 132.041 424.949 134.721 424.219 137.402M307.807 314.337H229.9L277.723 195.409L312.766 282.263M307.807 314.337C308.103 304.094 309.549 292.781 312.766 282.263M358.553 179.103C360.55 177.733 362.533 176.35 364.426 174.877C366.655 173.146 368.757 171.29 370.737 169.311C372.839 167.456 374.695 165.353 376.551 163.251C380.157 158.926 383.319 154.303 386.078 149.398C387.44 146.924 388.677 144.45 389.79 141.853C391.538 137.776 392.907 133.622 394.018 129.361M394.018 129.361L422.188 143.067M304.767 95.2638C304.621 94.7965 304.475 94.3293 304.299 93.8621C303.617 91.1379 303.185 88.3849 303.185 85.5751C303.185 82.6528 303.68 79.2558 304.67 76.2987C305.877 71.4591 309.01 66.4652 312.836 63.188C315.286 60.7368 318.223 58.9214 321.176 57.1483L321.202 57.1322C322.828 56.1538 324.451 55.1768 325.949 54.0352C328.489 52.2254 330.581 49.7544 332.384 47.2321C333.258 45.9197 334.128 44.6442 334.794 43.2159C335.421 41.8676 336.089 40.3277 336.467 38.8217C337.686 35.5683 337.252 32.3588 337.827 29.0503C342.824 30.662 347.51 32.8816 352.054 35.4827C359.17 40.0226 366.477 44.7047 372.469 50.6962C374.45 52.7988 376.306 54.9016 378.16 57.0041C379.893 59.2307 381.501 61.457 383.109 63.807C384.579 66.1328 385.926 68.5798 387.275 71.0279" stroke="#666666" stroke-linecap="round" stroke-linejoin="round" stroke-dasharray="4 8"/>
</svg>
