<svg viewBox="0 0 16 16" fill="none" xmlns="http://www.w3.org/2000/svg">
  <g clip-path="url(#clip0_2_499)">
    <mask id="mask0_2_499" style="mask-type:luminance" maskUnits="userSpaceOnUse" x="2" y="2" width="13" height="14">
      <path d="M2.76367 2.89453H14.4336V15.4586H2.76367V2.89453Z" fill="white" />
    </mask>
    <g mask="url(#mask0_2_499)">
      <path
        d="M14.3853 4.98103L13.9657 11.6849L9.95337 2.89453L14.3853 4.98103ZM11.6062 13.6494L8.5745 15.4093L5.54273 13.6494L6.15936 12.1292H10.9896L11.6062 13.6494ZM8.5745 6.23121L10.1631 10.1603H6.98581L8.5745 6.23121ZM3.17902 11.6849L2.76367 4.98103L7.19562 2.89453L3.17902 11.6849Z"
        fill="url(#paint0_linear_2_499)" />
      <path
        d="M14.3853 4.98103L13.9657 11.6849L9.89087 2.89453L14.3853 4.98103ZM11.6062 13.6494L8.5745 15.4093L5.54273 13.6494L6.15936 12.1292H10.9896L11.6062 13.6494ZM8.5745 6.23121L10.1631 10.1603H6.98581L8.5745 6.23121ZM3.17902 11.6849L2.76367 4.98103L7.25812 2.89453L3.17902 11.6849Z"
        fill="url(#paint1_linear_2_499)" />
    </g>
    <path fill-rule="evenodd" clip-rule="evenodd"
      d="M8.99981 0.557211C9.09787 0.524519 9.20419 0.5 9.31863 0.5C9.46575 0.5 9.62512 0.532698 9.80087 0.63895C9.98481 0.769719 10.2177 0.9577 10.2055 1.23967C10.1582 1.33546 10.0491 1.41649 9.92294 1.51011C9.62394 1.732 9.22981 2.02456 9.33906 2.75169C9.31863 2.72308 9.30225 2.69039 9.29 2.66178C9.14694 2.42476 9.11425 2.13053 9.23275 1.85673C9.2555 1.79446 9.28112 1.74659 9.30544 1.70096C9.36425 1.59087 9.416 1.49391 9.40444 1.23967C9.40444 1.21515 9.40037 1.19063 9.39625 1.16611C9.39419 1.1518 9.39112 1.13954 9.38806 1.12727C9.385 1.11502 9.38194 1.10276 9.37994 1.08846C9.32269 0.88005 9.20825 0.69615 8.99981 0.557211ZM10.6103 0.817575C10.6091 0.804381 10.608 0.792263 10.6183 0.732938C10.745 0.773806 10.8717 0.818781 11.0066 0.904594C11.0352 0.916856 11.0597 0.929113 11.0883 0.945463C11.2804 1.06806 11.4725 1.20291 11.6564 1.34594C11.6933 1.37863 11.73 1.41541 11.7627 1.44811C11.8281 1.51758 11.8894 1.58705 11.9507 1.65652C12.0079 1.73008 12.0611 1.80364 12.1142 1.88128C12.1632 1.95893 12.2082 2.04066 12.2532 2.12238C12.2941 2.20411 12.3349 2.28993 12.3676 2.37574C12.3938 2.44451 12.4174 2.51591 12.4404 2.58572C12.4461 2.60302 12.4518 2.62023 12.4575 2.63728C12.4821 2.72719 12.5025 2.81709 12.5188 2.91109L12.5189 2.91153C12.5311 3.00126 12.5434 3.09106 12.5515 3.18488L12.5516 3.18633C12.5556 3.25123 12.5597 3.31613 12.5597 3.38103C12.5597 3.47073 12.5516 3.5645 12.5434 3.65828L12.5433 3.65891C12.5358 3.74174 12.5213 3.82457 12.5063 3.91059L12.5024 3.93271C12.482 4.02261 12.4616 4.11252 12.433 4.19834C12.4044 4.28824 12.3717 4.37406 12.3349 4.45988C12.2981 4.54569 12.2572 4.62742 12.2122 4.70916C12.1755 4.77451 12.1347 4.83986 12.0938 4.90522L12.0938 4.90527C12.0897 4.91141 12.0856 4.91859 12.0815 4.92574C12.0774 4.93289 12.0733 4.94004 12.0693 4.94618C12.0161 5.01973 11.9589 5.09329 11.8976 5.16684C11.8362 5.23631 11.7749 5.30579 11.7055 5.36709C11.6401 5.43247 11.5706 5.49377 11.497 5.55097C11.4235 5.60817 11.3459 5.66127 11.2683 5.71438L11.2681 5.71444C11.1864 5.76348 11.1088 5.80843 11.0229 5.8493C10.9412 5.89016 10.8554 5.93103 10.7654 5.96372C10.7183 5.98168 10.6699 5.99839 10.621 6.01388C9.81025 5.05665 7.93894 5.00973 6.81044 5.64043C5.78886 6.16806 5.3125 7.03125 5.05125 7.65669C4.21705 7.35106 3.28372 7.27581 2.31334 7.50025C2.10081 7.85169 1.85558 8.17044 1.81062 8.06825C1.76975 7.97019 1.7861 7.63919 1.81062 7.35719C1.63079 7.64325 1.45095 7.89256 1.41417 7.81081C1.38146 7.73725 1.38556 7.52881 1.39781 7.30819C1.38967 7.30612 1.38051 7.30413 1.37135 7.30206C1.36214 7.3 1.35288 7.29794 1.34468 7.29594C1.34158 7.29438 1.33906 7.29344 1.33691 7.29256C1.3334 7.29125 1.33087 7.29031 1.32833 7.28775C1.29972 7.27956 1.27111 7.27138 1.24659 7.25913C1.21389 7.24688 1.18119 7.23056 1.15258 7.21419C1.11989 7.19781 1.09128 7.1815 1.06267 7.16106C1.03814 7.14475 1.01362 7.12431 0.9891 7.10388C0.985025 7.10388 0.980931 7.09975 0.980931 7.09975C0.977462 7.09681 0.974056 7.09388 0.9707 7.091L0.970244 7.09062C0.946106 7.07 0.924688 7.05169 0.903275 7.03031C0.87875 7.00575 0.854225 6.97712 0.833794 6.95262L0.772488 6.86681C0.756138 6.83819 0.739794 6.80962 0.723444 6.77694C0.7194 6.77287 0.715381 6.76488 0.711344 6.75681L0.711181 6.7565C0.70505 6.74425 0.699938 6.73194 0.694831 6.71969C0.689725 6.70744 0.684612 6.69519 0.678481 6.68294C0.666225 6.65431 0.65395 6.62163 0.645787 6.58488C0.637612 6.55213 0.629444 6.51944 0.62535 6.48675C0.621256 6.47863 0.621256 6.4745 0.621256 6.46631C0.619209 6.46631 0.617167 6.46531 0.615126 6.46431C0.613084 6.46325 0.611041 6.46225 0.608994 6.46225C0.600492 6.458 0.592481 6.45425 0.584791 6.45062C0.5703 6.44381 0.556949 6.43756 0.543599 6.42956C0.433181 6.37256 0.400366 6.3435 0.328829 6.28019C0.318281 6.27088 0.30689 6.26075 0.294284 6.24974C0.265676 6.22931 0.241152 6.20887 0.216629 6.18436C0.192107 6.16392 0.167584 6.13941 0.147149 6.11898C0.126772 6.09453 0.110465 6.07008 0.0941569 6.04563L0.094015 6.04542L0.0939763 6.04536C0.0776419 6.02086 0.0613089 5.99636 0.0490572 5.97186V5.96776C0.0368034 5.94324 0.0286162 5.91873 0.0204484 5.89421C0.0122612 5.86969 0.00818681 5.84518 0.00409342 5.81656C1.35042e-08 5.80022 0 5.77979 0 5.76344C0 5.73797 0.00322991 5.71574 0.00682737 5.69098C0.00726812 5.68795 0.00772138 5.68483 0.00816775 5.68171C0.00977831 5.67206 0.0107552 5.65862 0.0118451 5.64362C0.0135256 5.6205 0.0154748 5.59368 0.0204293 5.57137C0.0204293 5.56932 0.0214519 5.56729 0.0224749 5.56524C0.0234986 5.56321 0.0245227 5.56116 0.0245227 5.55911C0.0285843 5.52657 0.0367154 5.49402 0.0448463 5.46148L0.0449578 5.46103C0.0572193 5.42426 0.0694806 5.38748 0.0817419 5.35479C0.0910894 5.32675 0.102807 5.30109 0.115095 5.27418C0.118926 5.26579 0.122813 5.25728 0.1267 5.24853C0.143049 5.21584 0.163484 5.18315 0.183919 5.15454C0.193946 5.13449 0.207046 5.11599 0.220391 5.09713C0.228808 5.08524 0.237323 5.0732 0.245227 5.06056C0.259094 5.04114 0.274844 5.02362 0.2912 5.00541C0.298946 4.99679 0.306826 4.98802 0.314707 4.97883C0.339231 4.95431 0.367841 4.9257 0.39645 4.90526C0.420973 4.88074 0.449584 4.85623 0.478193 4.83579C0.492498 4.82558 0.507826 4.81638 0.523153 4.80719C0.538479 4.79799 0.553806 4.7888 0.568111 4.77859C0.600807 4.76224 0.633506 4.74589 0.6662 4.73363L0.764294 4.69686L0.766075 4.69641C0.798181 4.68839 0.830356 4.68035 0.866469 4.67233C0.8767 4.67105 0.887325 4.66938 0.8981 4.66768C0.921763 4.66393 0.946187 4.66007 0.968644 4.66007C1.06155 4.65254 1.1637 4.62342 1.26848 4.59355C1.33426 4.57479 1.40108 4.55575 1.46728 4.54157C1.55719 4.51296 1.64711 4.48026 1.73294 4.44349C1.82286 4.40671 1.90869 4.36584 1.99042 4.32089C2.07626 4.27185 2.15391 4.22282 2.23566 4.16561C2.31331 4.11248 2.39096 4.05118 2.46453 3.9858C2.5381 3.9245 2.60758 3.85503 2.67298 3.78556L2.68524 3.7733C2.70159 3.75695 2.71692 3.74059 2.73225 3.72424C2.74757 3.70791 2.7629 3.69156 2.77924 3.67522C2.78129 3.67113 2.78436 3.66806 2.78743 3.66499C2.79049 3.66193 2.79355 3.65887 2.79559 3.65479C2.82012 3.63026 2.84464 3.60575 2.86508 3.58123C2.86916 3.57715 2.87427 3.57306 2.87937 3.56898C2.88449 3.56489 2.8896 3.5608 2.89369 3.55671C2.91412 3.53219 2.93456 3.51176 2.95499 3.49132C2.95751 3.49132 2.95847 3.48977 2.95981 3.48762C2.96063 3.48629 2.96159 3.48472 2.96316 3.48316C2.98769 3.45864 3.01221 3.43412 3.03673 3.41369C3.03829 3.41214 3.03924 3.41058 3.04007 3.40924C3.0414 3.40709 3.04237 3.40552 3.0449 3.40552C3.05716 3.39326 3.06942 3.38202 3.08169 3.37078C3.09395 3.35954 3.10621 3.34831 3.11847 3.33605C3.11971 3.33481 3.12132 3.33357 3.12308 3.33222C3.12714 3.32911 3.13197 3.32539 3.13482 3.3197C3.14505 3.31153 3.15527 3.30232 3.1655 3.29312C3.17571 3.28393 3.18592 3.27474 3.19613 3.26658C3.20021 3.26453 3.2043 3.26146 3.20839 3.2584C3.21248 3.25533 3.21657 3.25226 3.22065 3.25022L3.24117 3.23381C3.25477 3.22294 3.26836 3.21206 3.28196 3.20118L3.29012 3.19301C3.31465 3.17258 3.34326 3.15216 3.36778 3.13581C3.36982 3.13378 3.37186 3.13276 3.3739 3.13174C3.37594 3.13071 3.37799 3.12969 3.38004 3.12764C3.39534 3.11489 3.41223 3.10373 3.42972 3.09218C3.44027 3.08522 3.45103 3.07811 3.46178 3.07043C3.49039 3.04999 3.52309 3.02956 3.55988 3.00913C3.59258 2.9887 3.62936 2.96826 3.66614 2.94783C3.67431 2.94375 3.69066 2.93557 3.70292 2.92741C3.71082 2.92346 3.71913 2.91909 3.72773 2.91458C3.74586 2.90505 3.76526 2.89485 3.78467 2.88654C3.82145 2.86611 3.86641 2.84158 3.91137 2.82115C3.91954 2.81706 3.92772 2.81298 3.93998 2.80889C3.96422 2.79542 3.98846 2.78373 4.01388 2.77148C4.02702 2.76514 4.04048 2.75864 4.05442 2.75168C4.05671 2.74939 4.06028 2.74839 4.06442 2.74723C4.06767 2.74632 4.07126 2.74531 4.07485 2.74351L4.20972 2.68222C4.23302 2.67224 4.25631 2.66158 4.27987 2.6508C4.3142 2.63509 4.34912 2.61911 4.38548 2.60457L4.43913 2.59026L4.44399 2.58897C4.48579 2.57783 4.52759 2.56668 4.56939 2.55553C4.68792 2.52693 4.81053 2.49832 4.93723 2.4738L4.93758 2.47374C4.99877 2.4615 5.05996 2.44926 5.12116 2.44111C5.37047 2.40024 5.61978 2.36756 5.8691 2.35121C6.04484 2.33894 6.22468 2.33078 6.4045 2.33078C6.64975 2.33078 6.89088 2.34304 7.13613 2.36756C7.14019 2.36756 7.14325 2.36858 7.14631 2.36959C7.14938 2.37062 7.15244 2.37164 7.15656 2.37164C7.40587 2.39616 7.65519 2.43294 7.90037 2.48198L8.15788 2.54328C8.31731 2.58006 8.47256 2.62092 8.632 2.66587L9.572 3.02958C9.56944 3.02442 9.56644 3.01886 9.56331 3.01302C9.5565 3.00035 9.549 2.98634 9.54344 2.97236C9.53731 2.95602 9.53219 2.93968 9.52706 2.92333C9.52194 2.90698 9.51687 2.89063 9.51075 2.87429C9.50256 2.84159 9.49438 2.80891 9.49031 2.77621C9.48213 2.73943 9.478 2.70674 9.478 2.67405C9.47394 2.64953 9.47394 2.62501 9.47394 2.60049C9.47394 2.58414 9.47494 2.56678 9.476 2.54941C9.477 2.53204 9.478 2.51468 9.478 2.49833C9.48006 2.49018 9.48106 2.48204 9.48206 2.47389C9.48312 2.46569 9.48413 2.45749 9.48619 2.44929C9.48825 2.44113 9.48925 2.43196 9.49025 2.42278C9.49131 2.41357 9.49231 2.40436 9.49438 2.39616C9.50256 2.36347 9.51069 2.33078 9.523 2.294C9.52937 2.26842 9.53825 2.24536 9.54769 2.22087C9.55031 2.21406 9.553 2.20713 9.55569 2.20001C9.56381 2.18369 9.571 2.16838 9.57812 2.15307C9.58531 2.13774 9.59244 2.12237 9.60063 2.10602C9.617 2.07741 9.63744 2.04881 9.65788 2.02021C9.67294 1.99377 9.695 1.96735 9.71444 1.94414L9.71912 1.93848L9.72406 1.93274C9.7465 1.90656 9.76606 1.88369 9.79275 1.86083C9.81725 1.83631 9.84175 1.81588 9.87037 1.79544C9.88825 1.7776 9.90825 1.76408 9.92887 1.75016C9.93656 1.74496 9.94431 1.7397 9.95212 1.73414C9.98987 1.7084 10.0291 1.68482 10.0682 1.66128C10.1222 1.62877 10.1762 1.59635 10.2259 1.55842C10.2447 1.54506 10.2616 1.52994 10.278 1.51537C10.2866 1.50766 10.2951 1.50011 10.3036 1.49304V1.48895C10.3227 1.47533 10.3381 1.45807 10.3536 1.44082C10.3613 1.43219 10.369 1.42356 10.3772 1.41539C10.3976 1.39087 10.4181 1.36226 10.4385 1.33366L10.4469 1.32096L10.4501 1.31621C10.4544 1.30977 10.4587 1.30332 10.463 1.29688C10.4691 1.28871 10.4742 1.28052 10.4794 1.27235C10.4845 1.26418 10.4896 1.25602 10.4957 1.24784C10.5039 1.23154 10.511 1.21625 10.5181 1.20096L10.5182 1.20088C10.5253 1.18554 10.5325 1.17021 10.5407 1.15385L10.5407 1.15367C10.553 1.12104 10.5652 1.08841 10.5734 1.05578C10.5856 1.02309 10.5938 0.990394 10.602 0.9577C10.604 0.941388 10.605 0.923031 10.6061 0.904675C10.6071 0.88625 10.6081 0.867819 10.6101 0.851444C10.6116 0.833356 10.6109 0.825287 10.6103 0.817575ZM7.64975 13.4241C7.17344 13.6849 6.6375 13.8477 6.0694 13.8875C5.72199 13.9079 5.37868 13.8834 5.03944 13.8139V13.8099C4.91683 13.7772 4.63891 13.6995 4.37733 13.6137C4.18524 13.5361 4.00132 13.4461 3.82557 13.3399L3.83374 13.3317C3.90322 13.2786 4.15253 13.2255 4.39776 13.1805C3.74791 12.7596 3.1798 11.3048 4.1321 10.6836C4.14956 10.6762 4.16549 10.6672 4.18084 10.6585C4.19064 10.653 4.20019 10.6476 4.20975 10.6428C4.22406 10.6367 4.23734 10.6305 4.25062 10.6244C4.26391 10.6183 4.27719 10.6121 4.29149 10.606C4.32011 10.5937 4.34872 10.5856 4.37733 10.5774C4.40574 10.5693 4.43416 10.5652 4.46257 10.5611L4.46316 10.5611C4.49176 10.5529 4.52037 10.5488 4.55307 10.5488C4.56329 10.5488 4.57351 10.5478 4.58372 10.5468C4.59394 10.5458 4.60416 10.5447 4.61438 10.5447C4.64299 10.5447 4.67569 10.5487 4.70429 10.5529C4.73291 10.5529 4.76151 10.5569 4.79012 10.5651C4.81859 10.5692 4.84707 10.5773 4.87554 10.5854L4.87596 10.5856C4.88207 10.5876 4.88716 10.5896 4.89226 10.5917C4.89737 10.5937 4.90252 10.5958 4.90865 10.5978C4.91682 10.5999 4.92601 10.6029 4.93519 10.606C4.94439 10.6091 4.9536 10.6121 4.96178 10.6142C4.99039 10.6264 5.01492 10.6387 5.03944 10.6551C5.16614 10.749 5.16614 10.9084 5.09666 11.1046C5.08304 11.1236 5.07306 11.1427 5.06308 11.1617C5.05808 11.1712 5.05308 11.1808 5.04761 11.1904C5.03536 11.219 5.02717 11.2476 5.019 11.2762C5.01083 11.3048 5.00266 11.3334 4.99857 11.362V11.4233C4.99857 11.456 4.99857 11.4846 5.00266 11.5132C5.00675 11.5418 5.01492 11.5704 5.02718 11.599C5.03535 11.6276 5.04761 11.6562 5.05986 11.6848L5.05988 11.6849C5.06478 11.6914 5.06838 11.6993 5.07198 11.7071C5.07737 11.7188 5.08276 11.7306 5.09258 11.7379C5.29693 12.0199 5.68521 12.2079 6.07349 12.1793C6.31462 11.8769 6.49038 11.5255 6.58031 11.1495C6.6375 11.4192 6.64975 11.6346 6.62119 11.9668C6.54765 12.8221 7.51021 13.202 7.64975 13.4241ZM9.63338 10.5693C9.63744 10.5876 9.64156 10.605 9.64563 10.6224C9.64975 10.6397 9.65381 10.6571 9.65788 10.6755C9.66144 10.6968 9.66537 10.7185 9.66931 10.7404V10.7406C9.67894 10.7942 9.68888 10.8492 9.69469 10.9043V10.9084C9.70194 10.9411 9.706 10.9739 9.70969 11.0037L9.71012 11.0074L9.711 11.0147V11.031C9.71513 11.0678 9.71919 11.1046 9.71919 11.1372C9.72331 11.1822 9.72738 11.2272 9.72738 11.2721V11.3375C9.72738 11.3477 9.72838 11.359 9.72944 11.3702C9.73044 11.3814 9.73144 11.3927 9.73144 11.4029C9.73144 11.4152 9.73044 11.4274 9.72944 11.4397C9.72838 11.4519 9.72738 11.4642 9.72738 11.4764V11.5337C9.72738 11.548 9.72631 11.5613 9.72531 11.5745C9.72431 11.5878 9.72325 11.6011 9.72325 11.6154C9.72325 11.6317 9.72325 11.6481 9.71919 11.6685C9.71919 11.6824 9.71825 11.6962 9.71725 11.7104C9.71619 11.7258 9.71506 11.7416 9.71506 11.7584C9.711 11.7707 9.711 11.7829 9.711 11.7952C9.70894 11.8116 9.70687 11.8269 9.70487 11.8422L9.70481 11.8423C9.70281 11.8576 9.70075 11.8729 9.69875 11.8892C9.69875 11.9014 9.69875 11.9137 9.69462 11.926C9.69256 11.9464 9.6895 11.9658 9.68644 11.9852C9.68338 12.0046 9.68031 12.0241 9.67825 12.0445V12.0486V12.0527C9.67419 12.0711 9.67013 12.0904 9.666 12.1099C9.66194 12.1292 9.65781 12.1487 9.65375 12.1671V12.1794C9.64556 12.2161 9.63737 12.2529 9.62925 12.2897C9.62925 12.2917 9.62819 12.2948 9.62719 12.2979C9.62619 12.3009 9.62512 12.304 9.62512 12.3061C9.617 12.3428 9.60881 12.3796 9.5965 12.4164V12.4286C9.59369 12.4381 9.59088 12.4472 9.58813 12.4563L9.588 12.4566L9.58794 12.4568C9.57875 12.4868 9.57006 12.5149 9.56381 12.5431C9.55975 12.5472 9.55975 12.5513 9.55975 12.5513L9.52294 12.6738C9.51475 12.6943 9.50763 12.7137 9.50044 12.7331C9.49331 12.7526 9.48619 12.7719 9.478 12.7923C9.47106 12.8096 9.46488 12.827 9.45881 12.844L9.45875 12.8441C9.4505 12.8672 9.44244 12.8897 9.43306 12.9109C9.42488 12.9313 9.41675 12.9506 9.40856 12.97C9.40038 12.9894 9.39219 13.0089 9.384 13.0294H9.37988C9.37606 13.0379 9.37225 13.0468 9.36837 13.0557C9.35569 13.085 9.34244 13.1156 9.32675 13.1438C9.32269 13.1561 9.31862 13.1642 9.3145 13.1724C9.31362 13.1732 9.31294 13.1741 9.31238 13.175C9.31156 13.1762 9.311 13.1774 9.31044 13.1786C9.30937 13.1806 9.30838 13.1826 9.30631 13.1846C9.04069 13.72 8.64831 14.1899 8.15788 14.5577C8.12513 14.5781 8.09244 14.6027 8.05975 14.6272C8.05569 14.6313 8.05056 14.6344 8.04544 14.6374C8.04038 14.6405 8.03525 14.6436 8.03113 14.6476C8.00256 14.6681 7.97394 14.6885 7.94125 14.7089L7.9535 14.7334H7.95756L8.0015 14.7272L8.043 14.7212L8.06456 14.7182L8.12925 14.7089H8.13331C8.23962 14.6926 8.34587 14.6721 8.45212 14.6517C8.48075 14.6476 8.51344 14.6394 8.54206 14.6313C8.55225 14.6292 8.56144 14.6272 8.57063 14.6252C8.57981 14.6231 8.589 14.6211 8.59925 14.619C8.61356 14.617 8.62787 14.6139 8.64219 14.6109C8.6565 14.6078 8.67081 14.6048 8.68513 14.6027C8.69738 14.5986 8.70963 14.5955 8.72188 14.5924C8.73413 14.5894 8.74638 14.5863 8.75869 14.5822C9.16738 14.4842 9.56381 14.3493 9.94394 14.1899C9.29406 15.0767 8.41606 15.5184 7.39838 15.9884C7.86481 15.9884 8.60462 16.0044 9.08712 15.9884C10.8717 15.9289 11.8322 14.4269 12.6619 12.9354C12.4943 13.8794 12.1183 14.7784 11.5624 15.563C11.9589 15.3014 12.3226 14.9991 12.6537 14.6558C13.5692 13.6996 14.17 12.4858 14.3744 11.1823C14.5133 11.8279 14.5542 12.494 14.4929 13.1519C16.9841 9.42631 15.3831 5.47037 13.6371 3.83769L13.5493 3.77335C13.5744 3.86144 13.5569 3.95724 13.5406 4.04715C13.5202 4.13705 13.4956 4.22696 13.4711 4.31686C13.4425 4.40268 13.4098 4.49258 13.373 4.5784C13.3363 4.66013 13.2954 4.74594 13.2504 4.82767C13.2054 4.90532 13.1564 4.98706 13.1032 5.06061C13.0501 5.13826 12.9929 5.21181 12.9357 5.28128C12.8744 5.35484 12.809 5.42022 12.7436 5.48561C12.7027 5.52239 12.6659 5.55508 12.6251 5.58777C12.6086 5.60216 12.5932 5.61551 12.5778 5.62887L12.5776 5.62904C12.5624 5.64218 12.5472 5.65534 12.5311 5.6695C12.4575 5.72671 12.3839 5.77984 12.3022 5.82888C12.2246 5.87792 12.1428 5.92695 12.0611 5.96782C11.9753 6.00866 11.8895 6.04543 11.8037 6.08219L11.8036 6.08224C11.7177 6.11493 11.6278 6.14354 11.5379 6.16806C11.448 6.19258 11.354 6.21301 11.2641 6.22936C11.1743 6.24499 11.0844 6.25313 10.9981 6.26094L10.9861 6.26206C10.9401 6.26494 10.8941 6.26781 10.848 6.26925C10.9994 6.61637 11.4382 7.327 11.9831 7.50856C12.0716 7.781 12.1173 7.92481 12.1291 7.96263C12.101 7.95244 12.0732 7.97181 12.0457 7.96263C9.93969 7.25631 9.55819 9.39563 9.63338 10.5693Z"
      fill="#111111" />
    <path
      d="M14.1031 10.4847C14.4573 9.78531 15.1602 9.86431 15.4744 9C15.5416 9.5855 15.4763 10.1826 15.2873 10.7193C14.9223 11.8043 14.3101 11.4419 14.3101 11.4419C14.3101 11.4419 13.7834 11.1143 14.1031 10.4847Z"
      fill="#E0234E" />
  </g>
  <defs>
    <linearGradient id="paint0_linear_2_499" x1="5.32838" y1="14.2741" x2="14.6396" y2="9.92456"
      gradientUnits="userSpaceOnUse">
      <stop stop-color="#E40035" />
      <stop offset="0.24" stop-color="#F60A48" />
      <stop offset="0.352" stop-color="#F20755" />
      <stop offset="0.494" stop-color="#DC087D" />
      <stop offset="0.745" stop-color="#9717E7" />
      <stop offset="1" stop-color="#6C00F5" />
    </linearGradient>
    <linearGradient id="paint1_linear_2_499" x1="4.91057" y1="4.4035" x2="11.084" y2="11.3258"
      gradientUnits="userSpaceOnUse">
      <stop stop-color="#FF31D9" />
      <stop offset="1" stop-color="#FF5BE1" stop-opacity="0" />
    </linearGradient>
    <clipPath id="clip0_2_499">
      <rect width="16" height="16" fill="white" />
    </clipPath>
  </defs>
</svg>