<svg width="256" height="256" viewBox="0 0 256 256" fill="none" xmlns="http://www.w3.org/2000/svg">
  <style>

    @-webkit-keyframes animate-svg-stroke-1 {
      0% {
        stroke-dashoffset: 95.84183502197266px;
        stroke-dasharray: 95.84183502197266px;
      }

      100% {
        stroke-dashoffset: 0;
        stroke-dasharray: 95.84183502197266px;
      }
    }

    @keyframes animate-svg-stroke-1 {
      0% {
        stroke-dashoffset: 95.84183502197266px;
        stroke-dasharray: 95.84183502197266px;
      }

      100% {
        stroke-dashoffset: 0;
        stroke-dasharray: 95.84183502197266px;
      }
    }

    @-webkit-keyframes animate-svg-fill-1 {
      0% {
        fill: transparent;
      }

      100% {
        fill: rgb(255, 255, 255);
      }
    }

    @keyframes animate-svg-fill-1 {
      0% {
        fill: transparent;
      }

      100% {
        fill: rgb(255, 255, 255);
      }
    }

    .svg-elem-1 {
      -webkit-animation: animate-svg-stroke-1 10s ease-in 0s both,
        animate-svg-fill-1 0.7s ease-out 4s both;
      animation: animate-svg-stroke-1 10s ease-in 0s both,
        animate-svg-fill-1 0.7s ease-out 4s both;
    }

    @-webkit-keyframes animate-svg-stroke-2 {
      0% {
        stroke-dashoffset: 670.3125610351562px;
        stroke-dasharray: 670.3125610351562px;
      }

      100% {
        stroke-dashoffset: 0;
        stroke-dasharray: 670.3125610351562px;
      }
    }

    @keyframes animate-svg-stroke-2 {
      0% {
        stroke-dashoffset: 670.3125610351562px;
        stroke-dasharray: 670.3125610351562px;
      }

      100% {
        stroke-dashoffset: 0;
        stroke-dasharray: 670.3125610351562px;
      }
    }

    @-webkit-keyframes animate-svg-fill-2 {
      0% {
        fill: transparent;
      }

      100% {
        fill: rgb(255, 255, 255);
      }
    }

    @keyframes animate-svg-fill-2 {
      0% {
        fill: transparent;
      }

      100% {
        fill: rgb(255, 255, 255);
      }
    }

    .svg-elem-2 {
      -webkit-animation: animate-svg-stroke-2 10s ease-in 0.12s both,
        animate-svg-fill-2 0.7s ease-out 4.1s both;
      animation: animate-svg-stroke-2 10s ease-in 0.12s both,
        animate-svg-fill-2 0.7s ease-out 4.1s both;
    }

    @-webkit-keyframes animate-svg-stroke-3 {
      0% {
        stroke-dashoffset: 103.48904418945312px;
        stroke-dasharray: 103.48904418945312px;
      }

      100% {
        stroke-dashoffset: 0;
        stroke-dasharray: 103.48904418945312px;
      }
    }

    @keyframes animate-svg-stroke-3 {
      0% {
        stroke-dashoffset: 103.48904418945312px;
        stroke-dasharray: 103.48904418945312px;
      }

      100% {
        stroke-dashoffset: 0;
        stroke-dasharray: 103.48904418945312px;
      }
    }

    @-webkit-keyframes animate-svg-fill-3 {
      0% {
        fill: transparent;
      }

      100% {
        fill: rgb(255, 255, 255);
      }
    }

    @keyframes animate-svg-fill-3 {
      0% {
        fill: transparent;
      }

      100% {
        fill: rgb(255, 255, 255);
      }
    }

    .svg-elem-3 {
      -webkit-animation: animate-svg-stroke-3 10s ease-in 0.24s both,
        animate-svg-fill-3 0.7s ease-out 4.2s both;
      animation: animate-svg-stroke-3 10s ease-in 0.24s both,
        animate-svg-fill-3 0.7s ease-out 4.2s both;
    }

    @-webkit-keyframes animate-svg-stroke-4 {
      0% {
        stroke-dashoffset: 178.83607482910156px;
        stroke-dasharray: 178.83607482910156px;
      }

      100% {
        stroke-dashoffset: 0;
        stroke-dasharray: 178.83607482910156px;
      }
    }

    @keyframes animate-svg-stroke-4 {
      0% {
        stroke-dashoffset: 178.83607482910156px;
        stroke-dasharray: 178.83607482910156px;
      }

      100% {
        stroke-dashoffset: 0;
        stroke-dasharray: 178.83607482910156px;
      }
    }

    @-webkit-keyframes animate-svg-fill-4 {
      0% {
        fill: transparent;
      }

      100% {
        fill: rgb(255, 255, 255);
      }
    }

    @keyframes animate-svg-fill-4 {
      0% {
        fill: transparent;
      }

      100% {
        fill: rgb(255, 255, 255);
      }
    }

    .svg-elem-4 {
      -webkit-animation: animate-svg-stroke-4 10s ease-in 0.36s both alternate infinite,
        animate-svg-fill-4 0.7s ease-out 4.3s both alternate infinite;
      animation: animate-svg-stroke-4 10s ease-in 0.36s both alternate infinite,
        animate-svg-fill-4 0.7s ease-out 4.3s both alternate infinite;
    }

    @-webkit-keyframes animate-svg-stroke-5 {
      0% {
        stroke-dashoffset: 1017.0400390625px;
        stroke-dasharray: 1017.0400390625px;
      }

      100% {
        stroke-dashoffset: 0;
        stroke-dasharray: 1017.0400390625px;
      }
    }

    @keyframes animate-svg-stroke-5 {
      0% {
        stroke-dashoffset: 1017.0400390625px;
        stroke-dasharray: 1017.0400390625px;
      }

      100% {
        stroke-dashoffset: 0;
        stroke-dasharray: 1017.0400390625px;
      }
    }

    @-webkit-keyframes animate-svg-fill-5 {
      0% {
        fill: transparent;
      }

      100% {
        fill: rgb(255, 255, 255);
      }
    }

    @keyframes animate-svg-fill-5 {
      0% {
        fill: transparent;
      }

      100% {
        fill: rgb(255, 255, 255);
      }
    }

    .svg-elem-5 {
      -webkit-animation: animate-svg-stroke-5 10s ease-in 0.48s both alternate infinite,
        animate-svg-fill-5 0.7s ease-out 4.4s both alternate infinite;
      animation: animate-svg-stroke-5 10s ease-in 0.48s both alternate infinite,
        animate-svg-fill-5 0.7s ease-out 4.4s both alternate infinite;
    }

    @-webkit-keyframes animate-svg-stroke-6 {
      0% {
        stroke-dashoffset: 102.43283081054688px;
        stroke-dasharray: 102.43283081054688px;
      }

      100% {
        stroke-dashoffset: 0;
        stroke-dasharray: 102.43283081054688px;
      }
    }

    @keyframes animate-svg-stroke-6 {
      0% {
        stroke-dashoffset: 102.43283081054688px;
        stroke-dasharray: 102.43283081054688px;
      }

      100% {
        stroke-dashoffset: 0;
        stroke-dasharray: 102.43283081054688px;
      }
    }

    @-webkit-keyframes animate-svg-fill-6 {
      0% {
        fill: transparent;
      }

      100% {
        fill: rgb(17, 17, 17);
      }
    }

    @keyframes animate-svg-fill-6 {
      0% {
        fill: transparent;
      }

      100% {
        fill: rgb(17, 17, 17);
      }
    }

    .svg-elem-6 {
      -webkit-animation: animate-svg-stroke-6 10s ease-in 0.6s both alternate infinite,
        animate-svg-fill-6 0.7s ease-out 4.5s both alternate infinite;
      animation: animate-svg-stroke-6 10s ease-in 0.6s both alternate infinite,
        animate-svg-fill-6 0.7s ease-out 4.5s both alternate infinite;
    }

    @-webkit-keyframes animate-svg-stroke-7 {
      0% {
        stroke-dashoffset: 1973.51025390625px;
        stroke-dasharray: 1973.51025390625px;
      }

      100% {
        stroke-dashoffset: 0;
        stroke-dasharray: 1973.51025390625px;
      }
    }

    @keyframes animate-svg-stroke-7 {
      0% {
        stroke-dashoffset: 1973.51025390625px;
        stroke-dasharray: 1973.51025390625px;
      }

      100% {
        stroke-dashoffset: 0;
        stroke-dasharray: 1973.51025390625px;
      }
    }

    .svg-elem-7 {
      -webkit-animation: animate-svg-stroke-7 10s ease-in 0.72s both alternate infinite,
        animate-svg-fill-7 0.7s ease-out 4.6s both alternate infinite;
      animation: animate-svg-stroke-7 10s ease-in 0.72s both alternate infinite,
        animate-svg-fill-7 0.7s ease-out 4.6s both alternate infinite;
    }

    @-webkit-keyframes animate-svg-stroke-8 {
      0% {
        stroke-dashoffset: 1026px;
        stroke-dasharray: 1026px;
      }

      100% {
        stroke-dashoffset: 0;
        stroke-dasharray: 1026px;
      }
    }

    @keyframes animate-svg-stroke-8 {
      0% {
        stroke-dashoffset: 1026px;
        stroke-dasharray: 1026px;
      }

      100% {
        stroke-dashoffset: 0;
        stroke-dasharray: 1026px;
      }
    }

    @-webkit-keyframes animate-svg-fill-8 {
      0% {
        fill: transparent;
      }

      100% {
        fill: rgb(255, 255, 255);
      }
    }

    @keyframes animate-svg-fill-8 {
      0% {
        fill: transparent;
      }

      100% {
        fill: rgb(255, 255, 255);
      }
    }

    .svg-elem-8 {
      -webkit-animation: animate-svg-stroke-8 10s ease-in 0.84s both alternate infinite,
        animate-svg-fill-8 0.7s ease-out 4.7s both alternate infinite;
      animation: animate-svg-stroke-8 10s ease-in 0.84s both alternate infinite,
        animate-svg-fill-8 0.7s ease-out 4.7s both alternate infinite;
    }
  </style>
  <g clip-path="url(#clip0_45_315)">
    <path fill-rule="evenodd" clip-rule="evenodd"
      d="M149.098 8C147.267 8 145.566 8.39231 143.997 8.91537C147.332 11.1384 149.163 14.0808 150.079 17.4154C150.111 17.6442 150.16 17.8403 150.209 18.0364C150.258 18.2326 150.307 18.4288 150.34 18.6578C150.406 19.0501 150.471 19.4424 150.471 19.8347C150.656 23.9025 149.828 25.454 148.887 27.2153L148.874 27.2391C148.489 27.9621 148.084 28.7222 147.724 29.7077C145.828 34.0885 146.351 38.7962 148.64 42.5885C148.836 43.0462 149.098 43.5693 149.425 44.027C147.677 32.3929 153.983 27.712 158.767 24.1617C160.785 22.6639 162.531 21.3673 163.288 19.8347C163.484 15.3232 159.757 12.3155 156.814 10.2232C154.002 8.52317 151.452 8 149.098 8Z"
      fill="white" class="svg-elem-1"></path>
    <path
      d="M169.893 11.727C169.728 12.6762 169.745 12.8701 169.764 13.0812C169.775 13.2046 169.786 13.3337 169.762 13.6231C169.729 13.8846 169.713 14.1789 169.697 14.4731L169.697 14.4748L169.694 14.5211C169.678 14.7992 169.662 15.076 169.632 15.3232C169.501 15.8463 169.37 16.3694 169.174 16.8925C169.043 17.4146 168.848 17.9366 168.652 18.4587L168.651 18.4616C168.52 18.7233 168.405 18.9687 168.291 19.214L168.29 19.2154C168.176 19.46 168.062 19.7046 167.931 19.9655C167.838 20.0893 167.761 20.2129 167.683 20.3365L167.67 20.3576L167.669 20.3595C167.587 20.4897 167.506 20.6199 167.408 20.7501C167.339 20.8532 167.271 20.9563 167.202 21.0593L167.151 21.1354L167.016 21.3385C166.689 21.7962 166.362 22.2539 166.035 22.6462C165.912 22.7693 165.795 22.8989 165.679 23.0289L165.657 23.0531C165.41 23.3291 165.163 23.6052 164.858 23.8232V23.8886C164.722 24.0017 164.586 24.1226 164.448 24.2459L164.438 24.2547C164.179 24.4852 163.911 24.7237 163.615 24.9348C162.823 25.5383 161.965 26.0548 161.106 26.572L161.092 26.5805C160.465 26.9571 159.838 27.3344 159.234 27.7463C159.109 27.8352 158.985 27.9194 158.862 28.0026C158.532 28.2253 158.212 28.4416 157.926 28.7271C157.468 29.054 157.076 29.381 156.684 29.7733C156.259 30.1374 155.947 30.5016 155.59 30.9181L155.585 30.9238L155.506 31.0156L155.431 31.1063C155.12 31.4776 154.767 31.9004 154.526 32.3233L154.525 32.3251C154.198 32.7822 153.872 33.2392 153.61 33.6963C153.494 33.9271 153.392 34.1457 153.291 34.3624L153.25 34.4491C153.136 34.694 153.021 34.939 152.891 35.2002C152.857 35.2915 152.822 35.3808 152.788 35.4688L152.763 35.5339C152.612 35.9257 152.47 36.2948 152.368 36.704C152.175 37.2811 152.046 37.7952 151.918 38.3082L151.91 38.3386C151.879 38.463 151.863 38.602 151.847 38.7417L151.844 38.7644C151.828 38.9113 151.812 39.0581 151.779 39.1887C151.748 39.3126 151.732 39.4364 151.716 39.5603L151.713 39.5823C151.697 39.7126 151.681 39.8429 151.648 39.9732C151.648 40.2348 151.632 40.5127 151.616 40.7906C151.599 41.0685 151.583 41.3463 151.583 41.6078C151.583 42.0001 151.583 42.3925 151.648 42.7848C151.648 43.3079 151.714 43.8309 151.845 44.4194C151.91 44.9421 152.041 45.4648 152.172 45.9875L152.172 45.9886C152.264 46.2353 152.342 46.4822 152.419 46.729L152.433 46.7733C152.515 47.0348 152.597 47.2963 152.695 47.5578C152.784 47.7814 152.904 48.0056 153.013 48.2083L153.03 48.2394C153.074 48.3215 153.116 48.3999 153.152 48.4732L138.112 42.654C135.561 41.9348 133.077 41.2809 130.526 40.6925L126.406 39.7117C122.483 38.9271 118.494 38.3386 114.505 37.9463C114.439 37.9463 114.39 37.9299 114.341 37.9135C114.292 37.8972 114.243 37.8809 114.178 37.8809C110.254 37.4886 106.396 37.2924 102.472 37.2924C99.5949 37.2924 96.7175 37.423 93.9056 37.6193C89.9165 37.8809 85.9275 38.4039 81.9385 39.0577C80.9612 39.1879 79.9839 39.3833 79.0066 39.5787L79.0013 39.5798L78.9957 39.5808C76.9685 39.9731 75.0067 40.4308 73.1103 40.8885L71.1038 41.4235L70.1676 41.6732C69.5859 41.9058 69.0272 42.1614 68.4779 42.4128L68.4763 42.4135C68.0999 42.5857 67.7277 42.7561 67.3556 42.9155L65.1976 43.8962C65.1402 43.925 65.0827 43.9411 65.0308 43.9556C64.9645 43.9742 64.9073 43.9903 64.8707 44.0269C64.6477 44.1383 64.4324 44.2422 64.2221 44.3436C63.8154 44.5397 63.4275 44.7268 63.0397 44.9423C62.8435 45.0077 62.7127 45.0729 62.5819 45.1384C61.8626 45.4653 61.1432 45.8577 60.5547 46.1846C60.2457 46.317 59.9367 46.4793 59.6478 46.631L59.6437 46.6332C59.5061 46.7055 59.3731 46.7753 59.2468 46.8385C59.0506 46.9691 58.789 47.1 58.6583 47.1653C58.0697 47.4922 57.4812 47.8192 56.958 48.1461C56.3695 48.473 55.8463 48.7999 55.3885 49.1268C55.2164 49.2498 55.0443 49.3635 54.8756 49.4749C54.5957 49.6597 54.3255 49.8383 54.0807 50.0422C54.0478 50.075 54.0151 50.0914 53.9824 50.1078C53.9498 50.1241 53.9172 50.1404 53.8845 50.1729C53.4921 50.4345 53.0344 50.7613 52.642 51.0882L52.5113 51.2189L51.8587 51.741L51.5304 52.0035C51.4651 52.0362 51.3996 52.0853 51.3342 52.1344C51.2688 52.1834 51.2034 52.2324 51.138 52.2652C50.9747 52.3959 50.8113 52.5429 50.648 52.6899L50.645 52.6926C50.4824 52.8389 50.3198 52.9852 50.1572 53.1152C50.1115 53.2063 50.0342 53.2657 49.9693 53.3155C49.9411 53.3372 49.9153 53.357 49.8955 53.3768C49.6993 53.573 49.5032 53.7527 49.307 53.9325C49.1108 54.1123 48.9146 54.2922 48.7184 54.4884C48.6779 54.4884 48.6624 54.5134 48.6411 54.5479L48.6404 54.5491C48.6273 54.5701 48.6121 54.5947 48.5877 54.619C48.1953 54.946 47.803 55.3382 47.4106 55.7306C47.3855 55.7556 47.3701 55.7806 47.3569 55.8019C47.3356 55.8364 47.3202 55.8612 47.2799 55.8612C46.9529 56.1881 46.626 56.5151 46.299 56.9074C46.2336 56.9728 46.1518 57.0382 46.0699 57.1037C45.9883 57.169 45.9066 57.2344 45.8412 57.2997C45.5153 57.6908 45.1243 58.0818 44.7331 58.473L44.7295 58.4766C44.6968 58.5419 44.6478 58.5909 44.5988 58.6399C44.5497 58.689 44.5006 58.7381 44.4679 58.8035C44.208 59.0634 43.9642 59.3233 43.7205 59.5831L43.716 59.5879L43.7118 59.5923C43.468 59.8524 43.2239 60.1127 42.9638 60.3728L42.7676 60.5689C41.7213 61.6804 40.6096 62.792 39.4325 63.7728C38.2554 64.8189 37.013 65.7997 35.7705 66.6497C34.4626 67.5651 33.2201 68.3496 31.8468 69.1342C30.539 69.8534 29.1657 70.5073 27.727 71.0958C26.3537 71.6842 24.9151 72.2074 23.4764 72.6651C22.4172 72.892 21.3482 73.1967 20.2957 73.4968L20.2941 73.4973C18.6181 73.975 16.9843 74.4407 15.4983 74.5611C15.139 74.5611 14.7482 74.6229 14.3696 74.6828C14.1972 74.71 14.0272 74.7368 13.8635 74.7573C13.2863 74.8855 12.772 75.0139 12.2588 75.1421L12.2572 75.1425L12.2287 75.1497L10.6592 75.7381C10.1361 75.9343 9.61291 76.1958 9.08977 76.4574C8.86089 76.6208 8.61567 76.7679 8.37045 76.915C8.12521 77.0621 7.87997 77.2093 7.65108 77.3727C7.19334 77.6996 6.73557 78.0919 6.3432 78.4842C5.88546 78.8112 5.42769 79.2689 5.03532 79.6612C4.90922 79.8083 4.78313 79.9487 4.6592 80.0866L4.65787 80.0881C4.39666 80.3788 4.14513 80.6588 3.92363 80.9689C3.79717 81.1712 3.66093 81.3638 3.52626 81.5541C3.31273 81.8558 3.10313 82.1519 2.94271 82.4727C2.61575 82.9304 2.28879 83.4535 2.0272 83.9765C1.96501 84.1164 1.90282 84.2527 1.84152 84.3869C1.64492 84.8174 1.45743 85.228 1.30787 85.6766C1.11169 86.1997 0.915508 86.7881 0.719325 87.3765L0.71754 87.3837C0.587447 87.9044 0.457348 88.4251 0.392363 88.9458C0.392363 88.9786 0.375978 89.0113 0.359598 89.0439C0.34323 89.0766 0.326869 89.1092 0.326869 89.1419C0.247597 89.4989 0.21641 89.928 0.189522 90.2979C0.172083 90.5379 0.156453 90.753 0.130684 90.9073L0.109238 91.0557C0.0516786 91.4519 0 91.8075 0 92.215C0 92.4767 2.16067e-07 92.8035 0.0654947 93.065C0.130989 93.5228 0.196179 93.915 0.327175 94.3074C0.45786 94.6996 0.588855 95.0919 0.784915 95.4842V95.5497C0.980942 95.9417 1.24227 96.3338 1.50362 96.7258L1.50424 96.7267L1.50651 96.7301L1.50828 96.7328C1.76862 97.123 2.0291 97.5134 2.35438 97.9037C2.68134 98.2306 3.07371 98.6228 3.46607 98.9497C3.85844 99.342 4.25081 99.669 4.70855 99.9959C4.85775 100.126 4.99631 100.249 5.12665 100.364L5.26127 100.483L5.26299 100.485C6.40639 101.496 6.93178 101.961 8.69759 102.873C8.90797 102.999 9.11837 103.098 9.34618 103.205L9.35665 103.21L9.38928 103.225C9.50206 103.278 9.62017 103.334 9.74391 103.396C9.77666 103.396 9.80934 103.412 9.84201 103.429C9.87468 103.445 9.90734 103.461 9.94009 103.461C9.94009 103.592 9.94009 103.658 10.0056 103.788C10.0709 104.31 10.2012 104.832 10.3317 105.354L10.3326 105.358C10.4632 105.946 10.6596 106.469 10.8557 106.927C10.9538 107.123 11.0356 107.319 11.1173 107.515L11.1219 107.526C11.202 107.718 11.2827 107.912 11.3789 108.104L11.3815 108.109C11.4461 108.238 11.5104 108.366 11.5751 108.431C11.8334 108.947 12.0916 109.4 12.3499 109.852L12.3598 109.869L13.3407 111.242C13.6676 111.634 14.06 112.092 14.4524 112.485C14.795 112.827 15.1377 113.12 15.5239 113.45L15.5312 113.456C15.5849 113.502 15.6394 113.549 15.6949 113.596C15.6949 113.596 15.7604 113.662 15.8256 113.662C16.2179 113.989 16.6103 114.316 17.0027 114.577C17.4604 114.904 17.9182 115.165 18.4413 115.427C18.8991 115.689 19.4222 115.95 19.9454 116.146C20.3377 116.342 20.7955 116.473 21.2533 116.604C21.2939 116.645 21.3344 116.66 21.3906 116.681C21.425 116.695 21.4652 116.71 21.5149 116.735C21.6384 116.765 21.7771 116.796 21.916 116.827L21.9416 116.833L22.0178 116.85C22.1385 116.877 22.2573 116.904 22.365 116.931C22.1689 120.461 22.1034 123.796 22.6267 124.973C23.2152 126.281 26.0926 122.292 28.9699 117.715C28.5776 122.227 28.316 127.523 28.9699 129.092C29.6893 130.727 33.6129 125.627 37.0134 120.004C40.2426 119.257 43.4462 118.718 46.6152 118.376L50.8643 186.958L80.82 122.507C85 112.5 92.6217 98.689 108.967 90.2468C127.023 80.1557 156.964 80.9064 169.936 96.2221C170.719 95.9742 171.493 95.7068 172.247 95.4195C173.686 94.8964 175.059 94.2426 176.367 93.5888C177.43 93.0827 178.414 92.5376 179.411 91.9533C184.752 88.8225 190.172 84.2493 193.284 78.8461L193.304 78.8118C195.913 74.2202 198.048 70.7388 199.44 65.4325C199.657 64.6049 199.848 63.764 200.039 62.9234L200.101 62.5694L200.107 62.5365C200.345 61.172 200.574 59.8573 200.693 58.5426L200.694 58.5325C200.825 57.032 200.955 55.5316 200.955 54.0964C200.955 53.0739 200.892 52.0514 200.829 51.0288L200.826 50.9813L200.824 50.958C200.694 49.4569 200.498 48.0202 200.302 46.5844L200.301 46.5774C200.04 45.0735 199.713 43.635 199.32 42.1965C199.229 41.9237 199.138 41.6484 199.047 41.3715L199.04 41.3491C198.673 40.2392 198.298 39.1049 197.882 38.0119C197.358 36.6388 196.705 35.2658 196.051 33.9581L196.029 33.9177C195.316 32.6236 194.604 31.33 193.827 30.1005C192.977 28.8582 192.127 27.6813 191.211 26.5043C190.231 25.3928 189.25 24.2812 188.203 23.1697L188.194 23.1607C187.673 22.6398 187.089 22.0551 186.503 21.5351C183.56 19.2466 180.487 17.089 177.413 15.1274C176.956 14.8658 176.563 14.6697 176.105 14.4735C173.947 13.1005 171.92 12.3809 169.893 11.727Z"
      fill="white" class="svg-elem-2"></path>
    <path
      d="M193.304 78.8118L193.284 78.8461C190.172 84.2493 184.752 88.8225 179.411 91.9533L182.749 99.1534C190.677 97.3379 197.877 93.1874 203.898 87.7697C208.107 83.6205 211.545 78.6421 213.968 73.2544C214.096 72.9559 214.221 72.6544 214.343 72.3511L199.44 65.4325C198.048 70.7388 195.913 74.2202 193.304 78.8118Z"
      fill="white" class="svg-elem-3"></path>
    <path d="M137.192 99.6993L111.773 162.565H154.025C154.168 157.562 154.83 152.075 156.269 146.882L137.192 99.6993Z"
      fill="white" class="svg-elem-4"></path>
    <path
      d="M80.6311 220.958V221.023C85.4952 222.02 90.4118 222.438 95.3809 222.279L136.948 246.407C131.185 249.803 124.962 252.772 118.374 255.814C120.704 255.814 123.459 255.839 126.383 255.866L126.404 255.866L126.406 255.866H126.409C132.845 255.925 140.091 255.991 145.394 255.814C173.947 254.862 189.315 230.831 202.59 206.966C199.909 222.07 193.893 236.454 184.999 249.008C191.342 244.823 197.162 239.985 202.459 234.493C216.098 220.247 225.371 202.43 229.224 183.206C229.053 183.124 228.962 183.07 228.962 183.07C228.962 183.07 220.535 177.829 225.649 167.755C228.237 162.644 231.99 160.131 235.782 157.592C240.293 154.571 244.859 151.513 247.591 144C248.666 153.368 247.62 162.922 244.597 171.509C240.371 184.068 234.076 184.506 230.918 183.788C232.378 192.579 232.713 201.551 231.886 210.431C271.746 150.821 246.13 87.5259 218.194 61.403L216.789 60.3736C217.19 61.779 216.913 63.3071 216.652 64.7419L216.65 64.7544C216.328 66.1712 215.942 67.5881 215.556 69.0049L215.538 69.0698C215.18 70.1444 214.781 71.259 214.343 72.3511C214.221 72.6544 214.096 72.9559 213.968 73.2544C211.545 78.6421 208.107 83.6205 203.898 87.7697C197.877 93.1874 190.677 97.3379 182.749 99.1534C181.902 99.3471 181.053 99.5192 180.225 99.6697C178.788 99.9198 177.35 100.05 175.969 100.175L175.778 100.193C175.042 100.239 174.305 100.285 173.568 100.308C175.99 105.862 183.012 117.232 191.73 120.137C193.146 124.496 193.876 126.797 194.065 127.402C193.836 127.319 193.609 127.359 193.383 127.398C193.165 127.436 192.948 127.474 192.732 127.402C170.548 119.962 160.323 132.255 156.269 146.882C154.83 152.075 154.168 157.562 154.025 162.565C153.959 164.875 154.004 167.081 154.134 169.108C154.328 169.985 154.531 170.857 154.69 171.741L154.691 171.744L154.709 171.846V171.849L154.715 171.882C155.417 175.793 155.638 179.668 155.638 183.623V184.539C155.638 184.756 155.623 184.958 155.608 185.159L155.605 185.192C155.589 185.405 155.572 185.618 155.572 185.846C155.572 186.108 155.572 186.369 155.507 186.696C155.507 186.918 155.492 187.139 155.476 187.367L155.475 187.384C155.458 187.624 155.441 187.871 155.441 188.135C155.326 188.48 155.354 188.898 155.306 189.26L155.278 189.476L155.277 189.477L155.256 189.638L155.255 189.644C155.23 189.834 155.205 190.026 155.18 190.227C155.18 190.736 155.063 191.253 154.984 191.755L154.983 191.763C154.887 192.375 154.821 192.979 154.693 193.584L154.656 193.758C154.634 193.861 154.613 193.964 154.591 194.067H105.913C105.856 193.233 105.862 192.367 105.939 191.469C106.396 186.154 106.2 182.708 105.285 178.392C103.846 184.408 101.034 190.031 97.1758 194.869C90.9634 195.327 84.7509 192.319 81.4812 187.807C81.3249 187.691 81.2387 187.503 81.1527 187.316L81.1516 187.313L81.1496 187.309C81.0928 187.185 81.0356 187.061 80.9581 186.958L80.9577 186.957L80.9531 186.946C80.7586 186.492 80.5645 186.038 80.4349 185.584C80.2387 185.127 80.108 184.669 80.0426 184.211C79.9771 183.754 79.9771 183.296 79.9771 182.773V181.792C80.0425 181.335 80.1729 180.878 80.3035 180.421L80.304 180.419C80.4347 179.961 80.5657 179.504 80.7618 179.046C80.8492 178.893 80.9292 178.74 81.0093 178.588C81.169 178.283 81.3287 177.978 81.5465 177.673C82.6582 174.534 82.6582 171.984 80.631 170.481C80.2387 170.219 79.8463 170.023 79.3885 169.827C79.2576 169.794 79.1103 169.745 78.9631 169.696C78.8161 169.647 78.6691 169.598 78.5384 169.565C78.4403 169.532 78.3579 169.5 78.2762 169.467C78.1946 169.434 78.1131 169.402 78.0153 169.369L78.0087 169.367C77.5531 169.237 77.0975 169.107 76.642 169.042C76.1842 168.911 75.7265 168.846 75.2687 168.846C74.811 168.78 74.2878 168.715 73.83 168.715C73.6758 168.715 73.5214 168.73 73.3671 168.745L73.3396 168.748L73.3126 168.751C73.1582 168.766 73.0034 168.781 72.8491 168.781C72.326 168.781 71.8682 168.846 71.4105 168.977L71.4011 168.978C70.9465 169.043 70.4918 169.108 70.0372 169.238C69.5795 169.369 69.1217 169.5 68.6639 169.696C68.4359 169.794 68.2242 169.891 68.0125 169.989L68.0099 169.99L67.9445 170.02C67.7536 170.108 67.5614 170.197 67.356 170.285C67.218 170.354 67.0799 170.431 66.939 170.51L66.8934 170.536C66.6479 170.675 66.3929 170.819 66.1136 170.938C50.8768 180.877 59.9665 204.154 70.3641 210.888C66.4405 211.608 62.4515 212.458 61.3398 213.308L61.2091 213.438C64.0211 215.138 66.9638 216.577 70.0373 217.819C74.2225 219.192 78.6693 220.435 80.6311 220.958Z"
      fill="white" class="svg-elem-5"></path>
    <path
      d="M244.597 171.509C247.62 162.922 248.666 153.368 247.591 144C244.859 151.513 240.293 154.571 235.782 157.592C231.99 160.131 228.237 162.644 225.649 167.755C220.535 177.829 228.962 183.07 228.962 183.07C228.962 183.07 229.053 183.124 229.224 183.206C229.542 183.359 230.133 183.609 230.918 183.788C234.076 184.506 240.371 184.068 244.597 171.509Z"
      fill="#111111" class="svg-elem-6"></path>
    <path
      d="M137.192 246.549L136.948 246.407M148.887 27.2153C149.828 25.454 150.656 23.9025 150.471 19.8347C150.471 19.4424 150.406 19.0501 150.34 18.6578C150.307 18.4288 150.258 18.2326 150.209 18.0364C150.16 17.8403 150.111 17.6442 150.079 17.4154C149.163 14.0808 147.332 11.1384 143.997 8.91537C145.566 8.39231 147.267 8 149.098 8C151.452 8 154.002 8.52317 156.814 10.2232C159.757 12.3155 163.484 15.3232 163.288 19.8347C162.531 21.3673 160.785 22.6639 158.767 24.1617C153.983 27.712 147.677 32.3929 149.425 44.027C149.098 43.5693 148.836 43.0462 148.64 42.5885C146.351 38.7962 145.828 34.0885 147.724 29.7077C148.084 28.7222 148.489 27.9621 148.874 27.2391M148.887 27.2153L148.874 27.2391M148.887 27.2153C148.883 27.2232 148.879 27.2312 148.874 27.2391M188.203 23.1697C189.25 24.2812 190.231 25.3928 191.211 26.5043C192.127 27.6813 192.977 28.8582 193.827 30.1005C194.604 31.33 195.316 32.6236 196.029 33.9177M188.203 23.1697L188.194 23.1607M188.203 23.1697C188.2 23.1667 188.197 23.1637 188.194 23.1607M196.051 33.9581C196.705 35.2658 197.358 36.6388 197.882 38.0119C198.298 39.1049 198.673 40.2392 199.04 41.3491M196.051 33.9581L196.029 33.9177M196.051 33.9581C196.044 33.9446 196.036 33.9312 196.029 33.9177M199.047 41.3715C199.138 41.6484 199.229 41.9237 199.32 42.1965C199.713 43.635 200.04 45.0735 200.301 46.5774L200.302 46.5844C200.498 48.0202 200.694 49.4569 200.824 50.958L200.826 50.9813M199.047 41.3715L199.04 41.3491M199.047 41.3715C199.045 41.364 199.042 41.3566 199.04 41.3491M200.826 50.9813L200.829 51.0288M200.826 50.9813C200.827 50.9971 200.828 51.013 200.829 51.0288M200.101 62.5694L200.039 62.9234C199.848 63.764 199.657 64.6049 199.44 65.4325M200.101 62.5694L200.107 62.5365M200.101 62.5694C200.103 62.5584 200.105 62.5475 200.107 62.5365M193.304 78.8118L193.284 78.8461M193.304 78.8118C193.297 78.8232 193.291 78.8347 193.284 78.8461M193.304 78.8118C195.913 74.2202 198.048 70.7388 199.44 65.4325M21.9416 116.833L21.916 116.827M21.9416 116.833L22.0178 116.85M21.9416 116.833C21.967 116.839 21.9924 116.844 22.0178 116.85M21.9416 116.833C21.9331 116.831 21.9245 116.829 21.916 116.827M12.3598 109.869L13.3407 111.242C13.6676 111.634 14.06 112.092 14.4524 112.485C14.795 112.827 15.1377 113.12 15.5239 113.45L15.5312 113.456C15.5849 113.502 15.6394 113.549 15.6949 113.596C15.6949 113.596 15.7604 113.662 15.8256 113.662C16.2179 113.989 16.6103 114.316 17.0027 114.577C17.4604 114.904 17.9182 115.165 18.4413 115.427C18.8991 115.689 19.4222 115.95 19.9454 116.146C20.3377 116.342 20.7955 116.473 21.2533 116.604C21.2939 116.645 21.3344 116.66 21.3906 116.681C21.425 116.695 21.4652 116.71 21.5149 116.735C21.6384 116.765 21.7771 116.796 21.916 116.827M12.3598 109.869L12.3499 109.852M12.3598 109.869C12.3565 109.863 12.3532 109.857 12.3499 109.852M11.1173 107.515C11.0356 107.319 10.9538 107.123 10.8557 106.927C10.6596 106.469 10.4632 105.946 10.3326 105.358L10.3317 105.354C10.2012 104.832 10.0709 104.31 10.0056 103.788C9.94009 103.658 9.94009 103.592 9.94009 103.461C9.90734 103.461 9.87468 103.445 9.84201 103.429C9.80934 103.412 9.77666 103.396 9.74391 103.396C9.62017 103.334 9.50206 103.278 9.38928 103.225M11.1173 107.515L11.1219 107.526M11.1173 107.515C11.1188 107.519 11.1203 107.522 11.1219 107.526M9.35665 103.21L9.34618 103.205M9.35665 103.21L9.38928 103.225M9.35665 103.21C9.36749 103.215 9.37836 103.22 9.38928 103.225M9.35665 103.21C9.35316 103.208 9.34967 103.207 9.34618 103.205M5.26127 100.483L5.12665 100.364M5.26127 100.483L5.26299 100.485C6.40639 101.496 6.93178 101.961 8.69759 102.873C8.90797 102.999 9.11837 103.098 9.34618 103.205M5.26127 100.483C5.21734 100.444 5.17251 100.405 5.12665 100.364M0.109238 91.0557C0.0516786 91.4519 0 91.8075 0 92.215C0 92.4767 2.16067e-07 92.8035 0.0654947 93.065C0.130989 93.5228 0.196179 93.915 0.327175 94.3074C0.45786 94.6996 0.588855 95.0919 0.784915 95.4842V95.5497C0.980942 95.9417 1.24227 96.3338 1.50362 96.7258L1.50424 96.7267L1.50651 96.7301L1.50828 96.7328C1.76862 97.123 2.0291 97.5134 2.35438 97.9037C2.68134 98.2306 3.07371 98.6228 3.46607 98.9497C3.85844 99.342 4.25081 99.669 4.70855 99.9959C4.85775 100.126 4.99631 100.249 5.12665 100.364M0.109238 91.0557C0.11629 91.0072 0.123542 90.9573 0.130684 90.9073M0.109238 91.0557L0.130684 90.9073M0.130684 90.9073C0.156453 90.753 0.172083 90.5379 0.189522 90.2979C0.21641 89.928 0.247597 89.4989 0.326869 89.1419C0.326869 89.1092 0.34323 89.0766 0.359598 89.0439C0.375978 89.0113 0.392363 88.9786 0.392363 88.9458C0.457348 88.4251 0.587447 87.9044 0.71754 87.3837L0.719325 87.3765C0.915508 86.7881 1.11169 86.1997 1.30787 85.6766C1.45743 85.228 1.64492 84.8174 1.84152 84.3869C1.90282 84.2527 1.96501 84.1164 2.0272 83.9765C2.28879 83.4535 2.61575 82.9304 2.94271 82.4727C3.10313 82.1519 3.31273 81.8558 3.52626 81.5541C3.66093 81.3638 3.79717 81.1712 3.92363 80.9689C4.14513 80.6588 4.39666 80.3788 4.65787 80.0881L4.6592 80.0866C4.78313 79.9487 4.90922 79.8083 5.03532 79.6612C5.42769 79.2689 5.88546 78.8112 6.3432 78.4842C6.73557 78.0919 7.19334 77.6996 7.65108 77.3727C7.87997 77.2093 8.12521 77.0621 8.37045 76.915C8.61567 76.7679 8.86089 76.6208 9.08977 76.4574C9.61291 76.1958 10.1361 75.9343 10.6592 75.7381L12.2287 75.1497L12.2572 75.1425L12.2588 75.1421C12.772 75.0139 13.2863 74.8855 13.8635 74.7573C14.0272 74.7368 14.1972 74.71 14.3696 74.6828C14.7482 74.6229 15.139 74.5611 15.4983 74.5611C16.9843 74.4407 18.6181 73.975 20.2941 73.4973L20.2957 73.4968C21.3482 73.1967 22.4172 72.892 23.4764 72.6651C24.9151 72.2074 26.3537 71.6842 27.727 71.0958C29.1657 70.5073 30.539 69.8534 31.8468 69.1342C33.2201 68.3496 34.4626 67.5651 35.7705 66.6497C37.013 65.7997 38.2554 64.8189 39.4325 63.7728C40.6096 62.792 41.7213 61.6804 42.7676 60.5689L42.9638 60.3728C43.2239 60.1127 43.468 59.8524 43.7118 59.5923M43.716 59.5879L43.7205 59.5831M43.716 59.5879L43.7118 59.5923M43.716 59.5879C43.7146 59.5894 43.7132 59.5909 43.7118 59.5923M43.716 59.5879C43.7175 59.5863 43.719 59.5847 43.7205 59.5831M51.8587 51.741L51.5304 52.0035C51.4651 52.0362 51.3996 52.0853 51.3342 52.1344C51.2688 52.1834 51.2034 52.2324 51.138 52.2652C50.9747 52.3959 50.8113 52.5429 50.648 52.6899L50.645 52.6926C50.4824 52.8389 50.3198 52.9852 50.1572 53.1152C50.1115 53.2063 50.0342 53.2657 49.9693 53.3155C49.9411 53.3372 49.9153 53.357 49.8955 53.3768C49.6993 53.573 49.5032 53.7527 49.307 53.9325C49.1108 54.1123 48.9146 54.2922 48.7184 54.4884C48.6779 54.4884 48.6624 54.5134 48.6411 54.5479L48.6404 54.5491C48.6273 54.5701 48.6121 54.5947 48.5877 54.619C48.1953 54.946 47.803 55.3382 47.4106 55.7306C47.3855 55.7556 47.3701 55.7806 47.3569 55.8019C47.3356 55.8364 47.3202 55.8612 47.2799 55.8612C46.9529 56.1881 46.626 56.5151 46.299 56.9074C46.2336 56.9728 46.1518 57.0382 46.0699 57.1037C45.9883 57.169 45.9066 57.2344 45.8412 57.2997C45.5153 57.6908 45.1243 58.0818 44.7331 58.473L44.7295 58.4766C44.6968 58.5419 44.6478 58.5909 44.5988 58.6399C44.5497 58.689 44.5006 58.7381 44.4679 58.8035C44.208 59.0634 43.9642 59.3233 43.7205 59.5831M51.8587 51.741C52.0763 51.567 52.2938 51.393 52.5113 51.2189M51.8587 51.741L52.5113 51.2189M52.5113 51.2189L52.642 51.0882C53.0344 50.7613 53.4921 50.4345 53.8845 50.1729C53.9172 50.1404 53.9498 50.1241 53.9824 50.1078C54.0151 50.0914 54.0478 50.075 54.0807 50.0422C54.3255 49.8383 54.5957 49.6597 54.8756 49.4749C55.0443 49.3635 55.2164 49.2498 55.3885 49.1268C55.8463 48.7999 56.3695 48.473 56.958 48.1461C57.4812 47.8192 58.0697 47.4922 58.6583 47.1653C58.789 47.1 59.0506 46.9691 59.2468 46.8385C59.3731 46.7753 59.5061 46.7055 59.6437 46.6332L59.6478 46.631C59.9367 46.4793 60.2457 46.317 60.5547 46.1846C61.1432 45.8577 61.8626 45.4653 62.5819 45.1384C62.7127 45.0729 62.8435 45.0077 63.0397 44.9423C63.4275 44.7268 63.8154 44.5397 64.2221 44.3436C64.4324 44.2422 64.6477 44.1383 64.8707 44.0269C64.9073 43.9903 64.9645 43.9742 65.0308 43.9556C65.0827 43.9411 65.1402 43.925 65.1976 43.8962L67.3556 42.9155C67.7277 42.7561 68.0999 42.5857 68.4763 42.4135L68.4779 42.4128C69.0272 42.1614 69.5859 41.9058 70.1676 41.6732L71.1038 41.4235M71.1038 41.4235C71.7726 41.2452 72.4415 41.0669 73.1103 40.8885M71.1038 41.4235L73.1103 40.8885M73.1103 40.8885C75.0067 40.4308 76.9685 39.9731 78.9957 39.5808L79.0013 39.5798L79.0066 39.5787C79.9839 39.3833 80.9612 39.1879 81.9385 39.0577C85.9275 38.4039 89.9165 37.8809 93.9056 37.6193C96.7175 37.423 99.5949 37.2924 102.472 37.2924C106.396 37.2924 110.254 37.4886 114.178 37.8809C114.243 37.8809 114.292 37.8972 114.341 37.9135C114.39 37.9299 114.439 37.9463 114.505 37.9463C118.494 38.3386 122.483 38.9271 126.406 39.7117L130.526 40.6925C133.077 41.2809 135.561 41.9348 138.112 42.654L153.152 48.4732C153.116 48.3999 153.074 48.3215 153.03 48.2394M153.013 48.2083C152.904 48.0056 152.784 47.7814 152.695 47.5578C152.597 47.2963 152.515 47.0348 152.433 46.7733M153.013 48.2083L153.03 48.2394M153.013 48.2083C153.019 48.2187 153.024 48.2291 153.03 48.2394M152.433 46.7733L152.419 46.729M152.433 46.7733C152.428 46.7585 152.424 46.7438 152.419 46.729M151.713 39.5823C151.697 39.7126 151.681 39.8429 151.648 39.9732C151.648 40.2348 151.632 40.5127 151.616 40.7906C151.599 41.0685 151.583 41.3463 151.583 41.6078C151.583 42.0001 151.583 42.3925 151.648 42.7848C151.648 43.3079 151.714 43.8309 151.845 44.4194C151.91 44.9421 152.041 45.4648 152.172 45.9875L152.172 45.9886C152.264 46.2353 152.342 46.4822 152.419 46.729M151.713 39.5823L151.716 39.5603M151.713 39.5823C151.714 39.575 151.715 39.5676 151.716 39.5603M151.844 38.7644C151.828 38.9113 151.812 39.0581 151.779 39.1887C151.748 39.3126 151.732 39.4364 151.716 39.5603M151.844 38.7644L151.847 38.7417M151.844 38.7644C151.845 38.7568 151.846 38.7493 151.847 38.7417M151.91 38.3386L151.918 38.3082M151.91 38.3386C151.879 38.463 151.863 38.602 151.847 38.7417M151.91 38.3386C151.913 38.3285 151.915 38.3183 151.918 38.3082M152.763 35.5339C152.612 35.9257 152.47 36.2948 152.368 36.704C152.175 37.2811 152.046 37.7952 151.918 38.3082M152.763 35.5339L152.788 35.4688M152.763 35.5339C152.771 35.5123 152.78 35.4906 152.788 35.4688M153.25 34.4491C153.136 34.694 153.021 34.939 152.891 35.2002C152.857 35.2915 152.822 35.3808 152.788 35.4688M153.25 34.4491L153.291 34.3624M153.25 34.4491C153.264 34.4202 153.277 34.3913 153.291 34.3624M155.585 30.9238L155.506 31.0156L155.431 31.1063C155.12 31.4776 154.767 31.9004 154.526 32.3233L154.525 32.3251C154.198 32.7822 153.872 33.2392 153.61 33.6963C153.494 33.9271 153.392 34.1457 153.291 34.3624M155.585 30.9238L155.59 30.9181M155.585 30.9238C155.587 30.9219 155.588 30.92 155.59 30.9181M161.092 26.5805C160.465 26.9571 159.838 27.3344 159.234 27.7463C159.109 27.8352 158.985 27.9194 158.862 28.0026C158.532 28.2253 158.212 28.4416 157.926 28.7271C157.468 29.054 157.076 29.381 156.684 29.7733C156.259 30.1374 155.947 30.5016 155.59 30.9181M161.092 26.5805L161.106 26.572M161.092 26.5805C161.097 26.5777 161.101 26.5748 161.106 26.572M164.448 24.2459C164.586 24.1226 164.722 24.0017 164.858 23.8886V23.8232C165.163 23.6052 165.41 23.3291 165.657 23.0531M164.448 24.2459L164.438 24.2547M164.448 24.2459C164.445 24.2488 164.441 24.2518 164.438 24.2547M165.657 23.0531L165.679 23.0289M165.657 23.0531C165.664 23.045 165.671 23.0369 165.679 23.0289M167.67 20.3576L167.683 20.3365M167.67 20.3576L167.669 20.3595C167.587 20.4897 167.506 20.6199 167.408 20.7501C167.339 20.8532 167.271 20.9563 167.202 21.0593L167.151 21.1354L167.016 21.3385C166.689 21.7962 166.362 22.2539 166.035 22.6462C165.912 22.7693 165.795 22.8989 165.679 23.0289M167.67 20.3576C167.674 20.3506 167.679 20.3435 167.683 20.3365M169.697 14.4748L169.697 14.4731C169.713 14.1789 169.729 13.8846 169.762 13.6231C169.786 13.3337 169.775 13.2046 169.764 13.0812C169.745 12.8701 169.728 12.6762 169.893 11.727C171.92 12.3809 173.947 13.1005 176.105 14.4735C176.563 14.6697 176.956 14.8658 177.413 15.1274C180.487 17.089 183.56 19.2466 186.503 21.5351C187.089 22.0551 187.673 22.6398 188.194 23.1607M169.697 14.4748L169.694 14.5211M169.697 14.4748C169.696 14.4902 169.695 14.5057 169.694 14.5211M97.1104 222.2C96.5332 222.234 95.9567 222.26 95.3809 222.279M66.8934 170.536C66.6479 170.675 66.3929 170.819 66.1136 170.938C50.8768 180.877 59.9665 204.154 70.3641 210.888C66.4405 211.608 62.4515 212.458 61.3398 213.308L61.2091 213.438C64.0211 215.138 66.9638 216.577 70.0373 217.819C74.2225 219.192 78.6693 220.435 80.6311 220.958V221.023C85.4952 222.02 90.4118 222.438 95.3809 222.279M66.8934 170.536L66.939 170.51M66.8934 170.536C66.9087 170.527 66.9239 170.519 66.939 170.51M68.0099 169.99L68.0125 169.989C68.2242 169.891 68.4359 169.794 68.6639 169.696C69.1217 169.5 69.5795 169.369 70.0372 169.238C70.4918 169.108 70.9465 169.043 71.4011 168.978L71.4105 168.977C71.8682 168.846 72.326 168.781 72.8491 168.781C73.0034 168.781 73.1582 168.766 73.3126 168.751M68.0099 169.99L67.9445 170.02M68.0099 169.99C67.9881 170 67.9663 170.01 67.9445 170.02M73.3396 168.748L73.3671 168.745M73.3396 168.748L73.3126 168.751M73.3396 168.748C73.3306 168.749 73.3216 168.75 73.3126 168.751M73.3396 168.748C73.3488 168.747 73.3579 168.746 73.3671 168.745M80.9577 186.957L80.9581 186.958C81.0356 187.061 81.0928 187.185 81.1496 187.309L81.1516 187.313L81.1527 187.316C81.2387 187.503 81.3249 187.691 81.4812 187.807C84.7509 192.319 90.9634 195.327 97.1758 194.869C101.034 190.031 103.846 184.408 105.285 178.392C106.2 182.708 106.396 186.154 105.939 191.469C105.862 192.367 105.856 193.233 105.913 194.067H154.591C154.613 193.964 154.634 193.861 154.656 193.758M80.9577 186.957L80.9531 186.946M80.9577 186.957C80.9562 186.953 80.9546 186.95 80.9531 186.946M154.709 171.846V171.849M154.709 171.846L154.691 171.744M154.709 171.846C154.703 171.812 154.697 171.778 154.691 171.744M154.709 171.849L154.715 171.882M154.709 171.849C154.711 171.86 154.713 171.871 154.715 171.882M155.605 185.192C155.589 185.405 155.572 185.618 155.572 185.846C155.572 186.108 155.572 186.369 155.507 186.696C155.507 186.918 155.492 187.139 155.476 187.367M155.605 185.192L155.608 185.159M155.605 185.192C155.606 185.181 155.607 185.17 155.608 185.159M155.476 187.367L155.475 187.384M155.476 187.367C155.476 187.373 155.475 187.378 155.475 187.384M155.278 189.476L155.277 189.477M155.278 189.476L155.306 189.26M155.278 189.476C155.287 189.404 155.297 189.332 155.306 189.26M155.277 189.477L155.256 189.638M155.277 189.477C155.27 189.531 155.263 189.584 155.256 189.638M154.983 191.763L154.984 191.755M154.983 191.763C154.983 191.76 154.984 191.758 154.984 191.755M154.983 191.763C154.887 192.375 154.821 192.979 154.693 193.584M154.656 193.758L154.693 193.584M154.656 193.758C154.668 193.7 154.681 193.642 154.693 193.584M216.65 64.7544L216.652 64.7419M216.65 64.7544C216.328 66.1712 215.942 67.5881 215.556 69.0049M216.65 64.7544C216.651 64.7502 216.652 64.7461 216.652 64.7419M215.538 69.0698L215.556 69.0049M215.538 69.0698C215.18 70.1444 214.781 71.259 214.343 72.3511M215.538 69.0698C215.544 69.0482 215.55 69.0265 215.556 69.0049M169.694 14.5211C169.678 14.7992 169.662 15.076 169.632 15.3232C169.501 15.8463 169.37 16.3694 169.174 16.8925C169.043 17.4146 168.848 17.9366 168.652 18.4587L168.651 18.4616C168.52 18.7233 168.405 18.9687 168.291 19.214L168.29 19.2154C168.176 19.46 168.062 19.7046 167.931 19.9655C167.838 20.0893 167.761 20.2129 167.683 20.3365M164.438 24.2547C164.179 24.4852 163.911 24.7237 163.615 24.9348C162.823 25.5383 161.965 26.0548 161.106 26.572M11.1219 107.526C11.202 107.718 11.2827 107.912 11.3789 108.104L11.3815 108.109C11.4461 108.238 11.5104 108.366 11.5751 108.431C11.8334 108.947 12.0916 109.4 12.3499 109.852M22.0178 116.85C22.1385 116.877 22.2573 116.904 22.365 116.931C22.1689 120.461 22.1034 123.796 22.6267 124.973C23.2152 126.281 26.0926 122.292 28.9699 117.715C28.5776 122.227 28.316 127.523 28.9699 129.092C29.6893 130.727 33.6129 125.627 37.0134 120.004C40.2426 119.257 43.4462 118.718 46.6152 118.376L50.8643 186.958L80.82 122.507C85 112.5 92.6217 98.689 108.967 90.2468C127.023 80.1557 156.964 80.9064 169.936 96.2221C170.719 95.9742 171.493 95.7068 172.247 95.4195C173.686 94.8964 175.059 94.2426 176.367 93.5888C177.43 93.0827 178.414 92.5376 179.411 91.9533M179.411 91.9533L182.749 99.1534M179.411 91.9533C184.752 88.8225 190.172 84.2493 193.284 78.8461M182.749 99.1534C181.902 99.3471 181.053 99.5192 180.225 99.6697C178.788 99.9198 177.35 100.05 175.969 100.175L175.778 100.193C175.042 100.239 174.305 100.285 173.568 100.308C175.99 105.862 183.012 117.232 191.73 120.137C193.146 124.496 193.876 126.797 194.065 127.402C193.836 127.319 193.609 127.359 193.383 127.398C193.165 127.436 192.948 127.474 192.732 127.402C170.548 119.962 160.323 132.255 156.269 146.882M182.749 99.1534C190.677 97.3379 197.877 93.1874 203.898 87.7697C208.107 83.6205 211.545 78.6421 213.968 73.2544C214.096 72.9559 214.221 72.6544 214.343 72.3511M156.269 146.882L137.192 99.6993L111.773 162.565H154.025M156.269 146.882C154.83 152.075 154.168 157.562 154.025 162.565M154.025 162.565C153.959 164.875 154.004 167.081 154.134 169.108C154.328 169.985 154.531 170.857 154.69 171.741L154.691 171.744M154.715 171.882C155.417 175.793 155.638 179.668 155.638 183.623V184.539C155.638 184.756 155.623 184.958 155.608 185.159M155.475 187.384C155.458 187.624 155.441 187.871 155.441 188.135C155.326 188.48 155.354 188.898 155.306 189.26M155.256 189.638L155.255 189.644M155.256 189.638C155.256 189.64 155.255 189.642 155.255 189.644M155.255 189.644C155.23 189.834 155.205 190.026 155.18 190.227C155.18 190.736 155.063 191.253 154.984 191.755M80.9531 186.946C80.7586 186.492 80.5645 186.038 80.4349 185.584C80.2387 185.127 80.108 184.669 80.0426 184.211C79.9771 183.754 79.9771 183.296 79.9771 182.773V181.792C80.0425 181.335 80.1729 180.878 80.3035 180.421L80.304 180.419C80.4347 179.961 80.5657 179.504 80.7618 179.046C80.8492 178.893 80.9292 178.74 81.0093 178.588C81.169 178.283 81.3287 177.978 81.5465 177.673C82.6582 174.534 82.6582 171.984 80.631 170.481C80.2387 170.219 79.8463 170.023 79.3885 169.827C79.2576 169.794 79.1103 169.745 78.9631 169.696C78.8161 169.647 78.6691 169.598 78.5384 169.565C78.4403 169.532 78.3579 169.5 78.2762 169.467C78.1946 169.434 78.1131 169.402 78.0153 169.369L78.0087 169.367C77.5531 169.237 77.0975 169.107 76.642 169.042C76.1842 168.911 75.7265 168.846 75.2687 168.846C74.811 168.78 74.2878 168.715 73.83 168.715C73.6758 168.715 73.5214 168.73 73.3671 168.745M67.9445 170.02C67.7536 170.108 67.5614 170.197 67.356 170.285C67.218 170.354 67.0799 170.431 66.939 170.51M95.3809 222.279L136.948 246.407M136.948 246.407C131.185 249.803 124.962 252.772 118.374 255.814C120.704 255.814 123.459 255.839 126.383 255.866M126.404 255.866L126.406 255.866H126.409C132.845 255.925 140.091 255.991 145.394 255.814C173.947 254.862 189.315 230.831 202.59 206.966C199.909 222.07 193.893 236.454 184.999 249.008C191.342 244.823 197.162 239.985 202.459 234.493C216.098 220.247 225.371 202.43 229.224 183.206M126.404 255.866L126.383 255.866M126.404 255.866C126.397 255.866 126.39 255.866 126.383 255.866M216.652 64.7419C216.913 63.3071 217.19 61.779 216.789 60.3736L218.194 61.403C246.13 87.5259 271.746 150.821 231.886 210.431C232.713 201.551 232.378 192.579 230.918 183.788M214.343 72.3511L199.44 65.4325M200.107 62.5365C200.345 61.172 200.574 59.8573 200.693 58.5426L200.694 58.5325C200.825 57.032 200.955 55.5316 200.955 54.0964C200.955 53.0739 200.892 52.0514 200.829 51.0288M230.918 183.788C234.076 184.506 240.371 184.068 244.597 171.509C247.62 162.922 248.666 153.368 247.591 144C244.859 151.513 240.293 154.571 235.782 157.592C231.99 160.131 228.237 162.644 225.649 167.755C220.535 177.829 228.962 183.07 228.962 183.07C228.962 183.07 229.053 183.124 229.224 183.206M230.918 183.788C230.133 183.609 229.542 183.359 229.224 183.206"
      stroke="black" class="svg-elem-7"></path>
  </g>
  <defs>
    <clipPath id="clip0_45_315">
      <rect width="256" height="256" fill="white" class="svg-elem-8"></rect>
    </clipPath>
  </defs>
</svg>