<svg width="256" height="256" viewBox="0 0 256 256" fill="none" xmlns="http://www.w3.org/2000/svg">
  <mask id="mask0_2_481" style="mask-type:luminance" maskUnits="userSpaceOnUse" x="44" y="46" width="187" height="202">
    <path d="M44.2188 46.3125H230.938V247.338H44.2188V46.3125Z" fill="white" />
  </mask>
  <g mask="url(#mask0_2_481)">
    <path
      d="M230.165 79.6964L223.451 186.958L159.254 46.3125L230.165 79.6964ZM185.7 218.391L137.192 246.549L88.6838 218.391L98.5498 194.067H175.834L185.7 218.391ZM137.192 99.6993L162.61 162.565H111.773L137.192 99.6993ZM50.8644 186.958L44.2188 79.6964L115.13 46.3125L50.8644 186.958Z"
      fill="white" />
    <path
      d="M230.165 79.6964L223.451 186.958L158.254 46.3125L230.165 79.6964ZM185.7 218.391L137.192 246.549L88.6838 218.391L98.5498 194.067H175.834L185.7 218.391ZM137.192 99.6993L162.61 162.565H111.773L137.192 99.6993ZM50.8644 186.958L44.2188 79.6964L116.13 46.3125L50.8644 186.958Z"
      fill="white" />
  </g>
  <path fill-rule="evenodd" clip-rule="evenodd"
    d="M143.997 8.91537C145.566 8.39231 147.267 8 149.098 8C151.452 8 154.002 8.52317 156.814 10.2232C159.757 12.3155 163.484 15.3232 163.288 19.8347C162.531 21.3673 160.785 22.6639 158.767 24.1617C153.983 27.712 147.677 32.3929 149.425 44.027C149.098 43.5693 148.836 43.0462 148.64 42.5885C146.351 38.7962 145.828 34.0885 147.724 29.7077C148.088 28.7114 148.498 27.9454 148.887 27.2153C149.828 25.454 150.656 23.9025 150.471 19.8347C150.471 19.4424 150.406 19.0501 150.34 18.6578C150.307 18.4288 150.258 18.2326 150.209 18.0364C150.16 17.8403 150.111 17.6442 150.079 17.4154C149.163 14.0808 147.332 11.1384 143.997 8.91537ZM169.764 13.0812C169.745 12.8701 169.728 12.6762 169.893 11.727C171.92 12.3809 173.947 13.1005 176.105 14.4735C176.563 14.6697 176.956 14.8658 177.413 15.1274C180.487 17.089 183.56 19.2466 186.503 21.5351C187.092 22.0581 187.68 22.6466 188.203 23.1697C189.25 24.2812 190.231 25.3928 191.211 26.5043C192.127 27.6813 192.977 28.8582 193.827 30.1005C194.612 31.3428 195.331 32.6505 196.051 33.9581C196.705 35.2658 197.358 36.6388 197.882 38.0119C198.301 39.1122 198.678 40.2545 199.047 41.3715C199.138 41.6484 199.229 41.9237 199.32 42.1965C199.713 43.635 200.04 45.0735 200.301 46.5774L200.302 46.5844C200.498 48.0202 200.694 49.4569 200.824 50.958L200.826 50.9813C200.89 52.0197 200.955 53.0581 200.955 54.0964C200.955 55.5316 200.825 57.032 200.694 58.5325L200.693 58.5426C200.573 59.8679 200.341 61.1931 200.101 62.5694L200.039 62.9234C199.712 64.3618 199.385 65.8003 198.928 67.1734C198.47 68.6119 197.947 69.9849 197.358 71.358C196.77 72.7311 196.116 74.0388 195.396 75.3465C194.808 76.3922 194.155 77.4378 193.501 78.4835L193.5 78.4844C193.435 78.5825 193.369 78.6974 193.304 78.8118C193.238 78.9262 193.173 79.0407 193.108 79.1388C192.258 80.3157 191.342 81.4926 190.361 82.6695C189.38 83.781 188.399 84.8926 187.288 85.8734C186.241 86.9195 185.13 87.9003 183.952 88.8156C182.776 89.7307 181.534 90.5804 180.292 91.4301L180.29 91.4311C178.983 92.2157 177.74 92.9349 176.367 93.5888C175.059 94.2426 173.686 94.8964 172.247 95.4195C171.493 95.7068 170.719 95.9742 169.936 96.2221C156.964 80.9064 127.023 80.1557 108.967 90.2468C92.6217 98.689 85 112.5 80.82 122.507C67.4728 117.617 52.5395 116.413 37.0134 120.004C33.6129 125.627 29.6893 130.727 28.9699 129.092C28.316 127.523 28.5776 122.227 28.9699 117.715C26.0926 122.292 23.2152 126.281 22.6267 124.973C22.1034 123.796 22.1689 120.461 22.365 116.931C22.2347 116.898 22.0882 116.866 21.9416 116.833C21.7942 116.8 21.646 116.767 21.5149 116.735C21.4652 116.71 21.425 116.695 21.3906 116.681C21.3344 116.66 21.2939 116.645 21.2533 116.604C20.7955 116.473 20.3377 116.342 19.9454 116.146C19.4222 115.95 18.8991 115.689 18.4413 115.427C17.9182 115.165 17.4604 114.904 17.0027 114.577C16.6103 114.316 16.2179 113.989 15.8256 113.662C15.7604 113.662 15.6949 113.596 15.6949 113.596C15.6394 113.549 15.5849 113.502 15.5312 113.456L15.5239 113.45C15.1377 113.12 14.795 112.827 14.4524 112.485C14.06 112.092 13.6676 111.634 13.3407 111.242L12.3598 109.869C12.0982 109.411 11.8367 108.954 11.5751 108.431C11.5104 108.366 11.4461 108.238 11.3815 108.109L11.3789 108.104C11.2808 107.908 11.199 107.711 11.1173 107.515C11.0356 107.319 10.9538 107.123 10.8557 106.927C10.6596 106.469 10.4632 105.946 10.3326 105.358C10.2018 104.834 10.0711 104.311 10.0056 103.788C9.94009 103.658 9.94009 103.592 9.94009 103.461C9.90734 103.461 9.87468 103.445 9.84201 103.429C9.80934 103.412 9.77666 103.396 9.74391 103.396C9.60787 103.328 9.47969 103.268 9.35665 103.21C9.1248 103.101 8.91119 103.001 8.69759 102.873C6.93089 101.961 6.40586 101.496 5.26127 100.483C5.09249 100.334 4.91024 100.172 4.70855 99.9959C4.25081 99.669 3.85844 99.342 3.46607 98.9497C3.07371 98.6228 2.68134 98.2306 2.35438 97.9037C2.02836 97.5125 1.76744 97.1212 1.50651 96.7301L1.50424 96.7267L1.50362 96.7258C1.24227 96.3338 0.980942 95.9417 0.784915 95.5497V95.4842C0.588855 95.0919 0.45786 94.6996 0.327175 94.3074C0.196179 93.915 0.130989 93.5228 0.0654947 93.065C2.16067e-07 92.8035 0 92.4767 0 92.215C0 91.8075 0.0516786 91.4519 0.109238 91.0557C0.11629 91.0072 0.123542 90.9573 0.130684 90.9073C0.156453 90.753 0.172083 90.5379 0.189522 90.2979C0.21641 89.928 0.247597 89.4989 0.326869 89.1419C0.326869 89.1092 0.34323 89.0766 0.359598 89.0439C0.375978 89.0113 0.392363 88.9786 0.392363 88.9458C0.457348 88.4251 0.587447 87.9044 0.71754 87.3837L0.719325 87.3765C0.915508 86.7881 1.11169 86.1997 1.30787 85.6766C1.45743 85.228 1.64492 84.8174 1.84152 84.3869C1.90282 84.2527 1.96501 84.1164 2.0272 83.9765C2.28879 83.4535 2.61575 82.9304 2.94271 82.4727C3.10313 82.1519 3.31273 81.8558 3.52626 81.5541C3.66093 81.3638 3.79717 81.1712 3.92363 80.9689C4.14551 80.6583 4.39751 80.3779 4.6592 80.0866C4.78313 79.9487 4.90922 79.8083 5.03532 79.6612C5.42769 79.2689 5.88546 78.8112 6.3432 78.4842C6.73557 78.0919 7.19334 77.6996 7.65108 77.3727C7.87997 77.2093 8.12521 77.0621 8.37045 76.915C8.61567 76.7679 8.86089 76.6208 9.08977 76.4574C9.61291 76.1958 10.1361 75.9343 10.6592 75.7381L12.2287 75.1497L12.2572 75.1425C12.7709 75.0142 13.2857 74.8856 13.8635 74.7573C14.0272 74.7368 14.1972 74.71 14.3696 74.6828C14.7482 74.6229 15.139 74.5611 15.4983 74.5611C16.9848 74.4407 18.6192 73.9747 20.2957 73.4968C21.3482 73.1967 22.4172 72.892 23.4764 72.6651C24.9151 72.2074 26.3537 71.6842 27.727 71.0958C29.1657 70.5073 30.539 69.8534 31.8468 69.1342C33.2201 68.3496 34.4626 67.5651 35.7705 66.6497C37.013 65.7997 38.2554 64.8189 39.4325 63.7728C40.6096 62.792 41.7213 61.6804 42.7676 60.5689L42.9638 60.3728C43.2254 60.1112 43.4707 59.8495 43.716 59.5879C43.9612 59.3265 44.2064 59.065 44.4679 58.8035C44.5006 58.7381 44.5497 58.689 44.5988 58.6399C44.6478 58.5909 44.6968 58.5419 44.7295 58.4766C45.1219 58.0842 45.5143 57.692 45.8412 57.2997C45.9066 57.2344 45.9883 57.169 46.0699 57.1037C46.1518 57.0382 46.2336 56.9728 46.299 56.9074C46.626 56.5151 46.9529 56.1881 47.2799 55.8612C47.3202 55.8612 47.3356 55.8364 47.3569 55.8019C47.3701 55.7806 47.3855 55.7556 47.4106 55.7306C47.803 55.3382 48.1953 54.946 48.5877 54.619C48.6126 54.5942 48.6279 54.5692 48.6411 54.5479C48.6624 54.5134 48.6779 54.4884 48.7184 54.4884C48.9146 54.2922 49.1108 54.1123 49.307 53.9325C49.5032 53.7527 49.6993 53.573 49.8955 53.3768C49.9153 53.357 49.9411 53.3372 49.9693 53.3155C50.0342 53.2657 50.1115 53.2063 50.1572 53.1152C50.3208 52.9844 50.4844 52.8371 50.648 52.6899C50.8113 52.5429 50.9747 52.3959 51.138 52.2652C51.2034 52.2324 51.2688 52.1834 51.3342 52.1344C51.3996 52.0853 51.4651 52.0362 51.5304 52.0035L51.8587 51.741C52.0763 51.567 52.2938 51.393 52.5113 51.2189L52.642 51.0882C53.0344 50.7613 53.4921 50.4345 53.8845 50.1729C53.9172 50.1404 53.9498 50.1241 53.9824 50.1078C54.0151 50.0914 54.0478 50.075 54.0807 50.0422C54.3255 49.8383 54.5957 49.6597 54.8756 49.4749C55.0443 49.3635 55.2164 49.2498 55.3885 49.1268C55.8463 48.7999 56.3695 48.473 56.958 48.1461C57.4812 47.8192 58.0697 47.4922 58.6583 47.1653C58.789 47.1 59.0506 46.9691 59.2468 46.8385C59.3731 46.7753 59.5061 46.7055 59.6437 46.6332C59.9338 46.4808 60.2442 46.3176 60.5547 46.1846C61.1432 45.8577 61.8626 45.4653 62.5819 45.1384C62.7127 45.0729 62.8435 45.0077 63.0397 44.9423C63.4275 44.7268 63.8154 44.5397 64.2221 44.3436C64.4324 44.2422 64.6477 44.1383 64.8707 44.0269C64.9073 43.9903 64.9645 43.9742 65.0308 43.9556C65.0827 43.9411 65.1402 43.925 65.1976 43.8962L67.3556 42.9155C67.7283 42.7558 68.1009 42.5853 68.4779 42.4128C69.0272 42.1614 69.5859 41.9058 70.1676 41.6732L71.0261 41.4442L71.1038 41.4235C71.7726 41.2452 72.4415 41.0669 73.1103 40.8885C75.0067 40.4308 76.9685 39.9731 78.9957 39.5808L79.0013 39.5798C79.9804 39.384 80.9594 39.1881 81.9385 39.0577C85.9275 38.4039 89.9165 37.8809 93.9056 37.6193C96.7175 37.423 99.5949 37.2924 102.472 37.2924C106.396 37.2924 110.254 37.4886 114.178 37.8809C114.243 37.8809 114.292 37.8972 114.341 37.9135C114.39 37.9299 114.439 37.9463 114.505 37.9463C118.494 38.3386 122.483 38.9271 126.406 39.7117L130.526 40.6925C133.077 41.2809 135.561 41.9348 138.112 42.654L153.152 48.4732C153.111 48.3907 153.063 48.3018 153.013 48.2083C152.904 48.0056 152.784 47.7814 152.695 47.5578C152.597 47.2963 152.515 47.0348 152.433 46.7733C152.351 46.5117 152.27 46.2501 152.172 45.9886C152.041 45.4655 151.91 44.9425 151.845 44.4194C151.714 43.8309 151.648 43.3079 151.648 42.7848C151.583 42.3925 151.583 42.0001 151.583 41.6078C151.583 41.3463 151.599 41.0685 151.616 40.7906C151.632 40.5127 151.648 40.2348 151.648 39.9732C151.681 39.8429 151.697 39.7126 151.713 39.5823C151.73 39.4511 151.746 39.3199 151.779 39.1887C151.812 39.0581 151.828 38.9113 151.844 38.7644C151.861 38.6171 151.877 38.4697 151.91 38.3386C152.041 37.8155 152.171 37.2925 152.368 36.704C152.47 36.2948 152.612 35.9257 152.763 35.5339C152.805 35.4249 152.848 35.3141 152.891 35.2002C153.021 34.939 153.136 34.694 153.25 34.4491C153.365 34.2038 153.479 33.9579 153.61 33.6963C153.872 33.2386 154.199 32.781 154.526 32.3233C154.767 31.9004 155.12 31.4776 155.431 31.1063L155.506 31.0156L155.585 30.9238C155.944 30.5049 156.257 30.1391 156.684 29.7733C157.076 29.381 157.468 29.054 157.926 28.7271C158.212 28.4416 158.532 28.2253 158.862 28.0026C158.985 27.9194 159.109 27.8352 159.234 27.7463C159.838 27.3344 160.465 26.9571 161.092 26.5805C161.956 26.0604 162.819 25.5416 163.615 24.9348C163.915 24.721 164.186 24.4791 164.448 24.2459C164.586 24.1226 164.722 24.0017 164.858 23.8886V23.8232C165.163 23.6052 165.41 23.3291 165.657 23.0531C165.781 22.915 165.904 22.777 166.035 22.6462C166.362 22.2539 166.689 21.7962 167.016 21.3385L167.151 21.1354L167.202 21.0593C167.271 20.9563 167.339 20.8532 167.408 20.7501C167.506 20.6193 167.588 20.4884 167.67 20.3576C167.752 20.2269 167.833 20.0963 167.931 19.9655C168.062 19.7046 168.176 19.46 168.29 19.2154L168.291 19.214C168.405 18.9687 168.52 18.7233 168.651 18.4616L168.652 18.4587C168.848 17.9366 169.043 17.4146 169.174 16.8925C169.37 16.3694 169.501 15.8463 169.632 15.3232C169.664 15.0622 169.68 14.7685 169.697 14.4748C169.713 14.18 169.729 13.8851 169.762 13.6231C169.786 13.3337 169.775 13.2046 169.764 13.0812ZM122.396 214.785C114.775 218.958 106.2 221.564 97.1104 222.2C91.5519 222.527 86.0588 222.135 80.6311 221.023V220.958C78.6693 220.435 74.2225 219.192 70.0373 217.819C66.9638 216.577 64.0211 215.138 61.2091 213.438L61.3398 213.308C62.4515 212.458 66.4405 211.608 70.3641 210.888C59.9665 204.154 50.8768 180.877 66.1136 170.938C66.3929 170.819 66.6479 170.675 66.8934 170.536C67.0502 170.448 67.2031 170.361 67.356 170.285C67.5849 170.187 67.7974 170.088 68.0099 169.99C68.2225 169.892 68.435 169.794 68.6639 169.696C69.1217 169.5 69.5795 169.369 70.0372 169.238C70.4918 169.108 70.9465 169.043 71.4011 168.978L71.4105 168.977C71.8682 168.846 72.326 168.781 72.8491 168.781C73.0126 168.781 73.1761 168.764 73.3396 168.748C73.5031 168.732 73.6666 168.715 73.83 168.715C74.2878 168.715 74.811 168.78 75.2687 168.846C75.7265 168.846 76.1842 168.911 76.642 169.042C77.0975 169.107 77.5531 169.237 78.0087 169.367L78.0153 169.369C78.1131 169.402 78.1946 169.434 78.2762 169.467C78.3579 169.5 78.4403 169.532 78.5384 169.565C78.6691 169.598 78.8161 169.647 78.9631 169.696C79.1103 169.745 79.2576 169.794 79.3885 169.827C79.8463 170.023 80.2387 170.219 80.631 170.481C82.6582 171.984 82.6582 174.534 81.5465 177.673C81.3287 177.978 81.169 178.283 81.0093 178.588C80.9292 178.74 80.8492 178.893 80.7618 179.046C80.5657 179.504 80.4347 179.961 80.304 180.419C80.1732 180.877 80.0426 181.334 79.9771 181.792V182.773C79.9771 183.296 79.9771 183.754 80.0426 184.211C80.108 184.669 80.2387 185.127 80.4349 185.584C80.5656 186.042 80.7617 186.499 80.9577 186.957L80.9581 186.958C81.0365 187.062 81.0941 187.188 81.1516 187.313C81.2379 187.501 81.3242 187.69 81.4812 187.807C84.7509 192.319 90.9634 195.327 97.1758 194.869C101.034 190.031 103.846 184.408 105.285 178.392C106.2 182.708 106.396 186.154 105.939 191.469C104.762 205.153 120.163 211.233 122.396 214.785ZM154.134 169.108C154.199 169.402 154.265 169.68 154.33 169.958C154.396 170.236 154.461 170.513 154.526 170.808C154.583 171.149 154.646 171.496 154.709 171.846V171.849C154.863 172.707 155.022 173.588 155.115 174.469V174.535C155.231 175.058 155.296 175.582 155.355 176.059L155.362 176.119L155.376 176.235V176.496C155.442 177.085 155.507 177.673 155.507 178.196C155.573 178.916 155.638 179.635 155.638 180.354V181.4C155.638 181.564 155.654 181.744 155.671 181.923C155.687 182.103 155.703 182.283 155.703 182.446C155.703 182.643 155.687 182.839 155.671 183.035C155.654 183.231 155.638 183.427 155.638 183.623V184.539C155.638 184.768 155.621 184.98 155.605 185.192C155.589 185.405 155.572 185.618 155.572 185.846C155.572 186.108 155.572 186.369 155.507 186.696C155.507 186.918 155.492 187.139 155.476 187.367C155.459 187.612 155.441 187.865 155.441 188.135C155.376 188.331 155.376 188.527 155.376 188.723C155.343 188.985 155.31 189.231 155.278 189.476L155.277 189.477C155.245 189.721 155.212 189.966 155.18 190.227C155.18 190.423 155.18 190.62 155.114 190.816C155.081 191.142 155.032 191.452 154.983 191.763C154.934 192.074 154.885 192.385 154.852 192.712V192.777V192.843C154.787 193.137 154.722 193.447 154.656 193.758C154.591 194.068 154.525 194.379 154.46 194.674V194.87C154.329 195.458 154.198 196.047 154.068 196.635C154.068 196.668 154.051 196.717 154.035 196.766C154.019 196.815 154.002 196.864 154.002 196.897C153.872 197.485 153.741 198.074 153.544 198.662V198.858C153.499 199.009 153.454 199.156 153.41 199.301L153.408 199.306L153.407 199.309C153.26 199.789 153.121 200.239 153.021 200.689C152.956 200.755 152.956 200.82 152.956 200.82L152.367 202.781C152.236 203.109 152.122 203.42 152.007 203.73C151.893 204.041 151.779 204.351 151.648 204.677C151.537 204.954 151.438 205.232 151.341 205.504L151.34 205.505C151.208 205.875 151.079 206.235 150.929 206.574C150.798 206.9 150.668 207.21 150.537 207.52C150.406 207.831 150.275 208.142 150.144 208.47H150.078C150.017 208.607 149.956 208.748 149.894 208.891C149.691 209.36 149.479 209.849 149.228 210.301C149.163 210.497 149.098 210.628 149.032 210.758C149.018 210.772 149.007 210.786 148.998 210.8C148.985 210.819 148.976 210.838 148.967 210.857C148.95 210.889 148.934 210.922 148.901 210.954C144.651 219.52 138.373 227.039 130.526 232.924C130.002 233.25 129.479 233.643 128.956 234.035C128.891 234.1 128.809 234.15 128.727 234.199C128.646 234.248 128.564 234.297 128.498 234.362C128.041 234.689 127.583 235.016 127.06 235.343L127.256 235.735H127.321L128.024 235.635L128.688 235.54L129.033 235.491L130.068 235.343H130.133C131.834 235.081 133.534 234.754 135.234 234.427C135.692 234.362 136.215 234.231 136.673 234.101C136.836 234.068 136.983 234.035 137.13 234.003C137.277 233.97 137.424 233.937 137.588 233.904C137.817 233.872 138.046 233.823 138.275 233.774C138.504 233.725 138.733 233.676 138.962 233.643C139.158 233.578 139.354 233.528 139.55 233.479C139.746 233.43 139.942 233.381 140.139 233.316C146.678 231.747 153.021 229.589 159.103 227.039C148.705 241.227 134.657 248.295 118.374 255.814C125.837 255.814 137.674 256.071 145.394 255.814C173.947 254.862 189.315 230.831 202.59 206.966C199.909 222.07 193.893 236.454 184.999 249.008C191.342 244.823 197.162 239.985 202.459 234.493C217.107 219.193 226.72 199.773 229.99 178.916C232.213 189.246 232.867 199.904 231.886 210.431C271.746 150.821 246.13 87.5259 218.194 61.403L216.789 60.3736C217.191 61.7831 216.911 63.3159 216.65 64.7544C216.323 66.1928 215.93 67.6313 215.538 69.0698C215.08 70.4428 214.557 71.8813 213.968 73.2544C213.38 74.562 212.726 75.9351 212.007 77.2428C211.287 78.4851 210.503 79.7929 209.652 80.9698C208.802 82.2121 207.887 83.389 206.971 84.5005C205.99 85.6774 204.944 86.7235 203.898 87.7697C203.244 88.3582 202.655 88.8813 202.001 89.4043C201.738 89.6345 201.492 89.8482 201.245 90.062L201.242 90.0646C200.999 90.2749 200.756 90.4855 200.497 90.712C199.32 91.6273 198.143 92.4774 196.835 93.2621C195.593 94.0467 194.285 94.8312 192.977 95.4851C191.604 96.1386 190.232 96.7269 188.859 97.3151L188.857 97.3159C187.484 97.8389 186.045 98.2967 184.607 98.689C183.168 99.0813 181.664 99.4082 180.225 99.6697C178.788 99.9198 177.35 100.05 175.969 100.175L175.778 100.193C175.042 100.239 174.305 100.285 173.568 100.308C175.99 105.862 183.012 117.232 191.73 120.137C193.146 124.496 193.876 126.797 194.065 127.402C193.616 127.239 193.172 127.549 192.732 127.402C159.035 116.101 152.931 150.33 154.134 169.108Z"
    fill="white" />
  <path
    d="M225.649 167.755C231.316 156.565 242.563 157.829 247.591 144C248.666 153.368 247.62 162.922 244.597 171.509C238.756 188.869 228.962 183.07 228.962 183.07C228.962 183.07 220.535 177.829 225.649 167.755Z"
    fill="#111111" />
</svg>